<?xml version="1.0" standalone="no"?> <!DOCTYPE svg PUBLIC "-//W3C//DTD SVG 1.0//EN" "http://www.w3.org/TR/2001/REC-SVG-20010904/DTD/svg10.dtd" > <svg xmlns="http://www.w3.org/2000/svg" width="100%" height="100%">
<defs >
<font id="neosans-light" horiz-adv-x="997" ><font-face
    font-family="Neo Sans Light"
    units-per-em="2048"
    panose-1="2 11 3 4 2 2 2 2 2 4"
    ascent="2124"
    descent="-444"
    alphabetic="0" />
<missing-glyph horiz-adv-x="1024" d="M51 0V1536H973V0H51ZM179 128H845V1408H179V128Z" />
<glyph unicode=" " glyph-name="space" horiz-adv-x="440" />
<glyph unicode="!" glyph-name="exclam" horiz-adv-x="418" d="M254 393Q254 377 242 366T215 354H203Q188 354 176 366T164 393V1483Q164 1498 176 1510T203 1522H215Q230 1522 242 1511T254 1483V393ZM254 27Q254 10 243 -1T215 -12H203Q187 -12 176 -1T164
27V178Q164 193 175 205T203 217H215Q232 217 243 206T254 178V27Z" />
<glyph unicode="&quot;" glyph-name="quotedbl" horiz-adv-x="604" d="M524 1499Q524 1489 522 1483L424 1130Q413 1092 385 1092H354Q336 1092 336 1112Q336 1124 338 1130L422 1483Q430 1522 463 1522H502Q524 1522 524 1499ZM268 1499Q268 1489 266 1483L168
1130Q157 1092 129 1092H98Q80 1092 80 1112Q80 1124 82 1130L166 1483Q174 1522 207 1522H246Q268 1522 268 1499Z" />
<glyph unicode="#" glyph-name="numbersign" horiz-adv-x="1303" d="M1200 1018Q1200 1003 1188 993T1159 983H946L905 520H1118Q1153 520 1153 485V479Q1153 463 1142 454T1112 444H897L862 39Q858 0 825 0H807Q774 0 774 35V39L809 444H440L406 39Q400 0 369
0H348Q335 0 325 11T315 35V39L350 444H139Q124 444 113 453T102 479V485Q102 501 115 510T145 520H358L399 983H186Q171 983 161 992T150 1018V1026Q150 1041 162 1051T193 1061H406L442 1483Q444 1499 455 1510T481 1522H502Q516 1522 524 1512T532 1487V1483L496
1061H864L901 1483Q903 1500 914 1511T940 1522H958Q989 1522 989 1487V1483L952 1061H1165Q1200 1061 1200 1026V1018ZM858 983H489L449 520H817L858 983Z" />
<glyph unicode="$" glyph-name="dollar" horiz-adv-x="1188" d="M1024 377Q1024 26 639 -8V-223Q639 -240 630 -251T606 -262H586Q571 -262 562 -251T553 -223V-12H549Q502 -12 435 -8T319 1T231 10Q195 14 195 43V70Q195 96 233 96H242Q295 92 393 83T549 74Q696
74 780 113T897 218T930 377Q930 432 917 469T876 539T794 610T653 702L449 829Q336 899 275 956T189 1070T164 1200Q164 1496 553 1528V1706Q553 1723 562 1734T586 1745H606Q621 1745 630 1734T639 1706V1532H643Q743 1532 948 1511Q983 1508 983 1481V1454Q983
1425 944 1425Q924 1425 867 1430T750 1441T641 1446Q504 1446 421 1420T298 1341T258 1200Q258 1140 279 1096T350 1010T506 903L707 780Q835 702 904 639T999 516T1024 377Z" />
<glyph unicode="%" glyph-name="percent" horiz-adv-x="1550" d="M1427 307Q1427 148 1360 68T1169 -12Q1088 -12 1030 23T940 130T909 307V520Q909 678 978 758T1169 838Q1249 838 1307 803T1396 696T1427 520V307ZM1264 1511Q1264 1500 1251 1483L391 27Q377
2 370 -5T348 -12H293Q279 -12 279 -2Q279 8 291 27L1151 1483Q1164 1506 1172 1514T1194 1522H1247Q1264 1522 1264 1511ZM641 1001Q641 842 574 762T383 682Q300 682 243 717T154 824T123 1001V1214Q123 1320 154 1391T243 1497T383 1532Q463 1532 521 1498T610
1391T641 1214V1001ZM1348 307V520Q1348 760 1169 760Q989 760 989 520V307Q989 68 1169 68Q1256 68 1302 126T1348 307ZM561 1001V1214Q561 1454 383 1454Q203 1454 203 1214V1001Q203 762 383 762Q561 762 561 1001Z" />
<glyph unicode="&amp;" glyph-name="ampersand" horiz-adv-x="1305" d="M1227 14Q1227 0 1210 0H1145Q1124 0 1112 14L983 152Q929 97 869 62T730 7T565 -12Q484 -12 402 6T252 64T143 173T102 342V354Q102 479 170 571T414 774Q312 892 256 973T184 1103T168
1206V1219Q168 1383 274 1457T559 1532Q659 1532 744 1501T881 1399T934 1219V1206Q934 1127 903 1062T802 932T612 797L545 756Q596 699 642 651T737 549L981 287Q1015 338 1039 407T1074 553T1085 713V735Q1085 774 1116 774H1145Q1178 774 1178 735V713Q1178
647 1170 577T1145 446T1102 326T1042 221L1223 27Q1227 19 1227 14ZM840 1206V1219Q840 1450 559 1450Q415 1450 339 1400T262 1219V1206Q262 1160 276 1118T342 1003T489 821L565 866Q677 932 736 984T817 1089T840 1206ZM926 215L672 487Q512 659 469 709Q363
643 306 592T224 487T199 354V342Q199 203 305 137T565 70Q681 70 772 108T926 215Z" />
<glyph unicode="&apos;" glyph-name="quotesingle" horiz-adv-x="348" d="M268 1499Q268 1489 266 1483L168 1130Q157 1092 129 1092H98Q80 1092 80 1112Q80 1124 82 1130L166 1483Q174 1522 207 1522H246Q268 1522 268 1499Z" />
<glyph unicode="(" glyph-name="parenleft" horiz-adv-x="543" d="M502 -389Q502 -399 485 -399H424Q400 -399 389 -385Q301 -279 240 -120T151 202T123 506V616Q123 756 151 919T240 1242T389 1507Q400 1522 424 1522H485Q502 1522 502 1511Q502 1503 492 1493Q405
1400 342 1246T247 924T215 616V506Q215 369 246 199T341 -124T492 -371Q502 -381 502 -389Z" />
<glyph unicode=")" glyph-name="parenright" horiz-adv-x="543" d="M420 506Q420 281 354 30T154 -385Q141 -399 119 -399H57Q41 -399 41 -389Q41 -381 51 -371Q138 -278 201 -125T296 199T328 506V616Q328 726 311 843T260 1081T173 1311T51 1493Q41 1503 41
1511Q41 1522 57 1522H119Q142 1522 154 1507Q223 1424 274 1313T357 1081T404 842T420 616V506Z" />
<glyph unicode="*" glyph-name="asterisk" horiz-adv-x="854" d="M784 1260Q784 1234 756 1227L489 1141L653 913Q664 898 664 889Q664 876 651 866L637 856Q628 850 621 850Q606 850 592 868L426 1096L262 868Q249 852 233 852Q223 852 217 856L201 866Q188 873
188 887Q188 898 199 913L365 1141L98 1227Q70 1234 70 1260Q70 1266 72 1268L78 1284Q84 1303 106 1303Q115 1303 121 1300L389 1214V1495Q389 1532 418 1532H436Q465 1532 465 1495V1214L733 1300Q739 1303 748 1303Q770 1303 776 1284L782 1268Q784 1266 784
1260Z" />
<glyph unicode="+" glyph-name="plus" horiz-adv-x="1188" d="M1051 791Q1051 758 1010 758H637V387Q637 346 604 346H584Q551 346 551 387V758H180Q139 758 139 791V811Q139 844 180 844H551V1217Q551 1257 584 1257H604Q637 1257 637 1217V844H1010Q1051 844
1051 811V791Z" />
<glyph unicode="," glyph-name="comma" horiz-adv-x="344" d="M266 195Q266 190 262 178L133 -166Q124 -189 117 -197T94 -205H70Q49 -205 49 -184Q49 -178 53 -166L162 178Q173 217 203 217H242Q266 217 266 195Z" />
<glyph unicode="-" glyph-name="hyphen" horiz-adv-x="705" d="M598 559Q598 544 588 535T559 526H145Q128 526 117 535T106 559V575Q106 592 117 602T145 612H559Q576 612 587 602T598 575V559Z" />
<glyph unicode="." glyph-name="period" horiz-adv-x="344" d="M217 27Q217 10 206 -1T178 -12H166Q150 -12 139 -1T127 27V178Q127 193 138 205T166 217H178Q195 217 206 206T217 178V27Z" />
<glyph unicode="/" glyph-name="slash" horiz-adv-x="639" d="M610 1507Q610 1497 608 1493L127 27Q115 -12 94 -12H49Q29 -12 29 12Q29 23 31 27L512 1493Q519 1513 525 1522T545 1532H588Q610 1532 610 1507Z" />
<glyph unicode="0" glyph-name="zero" horiz-adv-x="1188" d="M1065 559Q1065 272 941 130T594 -12Q372 -12 248 130T123 559V963Q123 1251 247 1391T594 1532Q817 1532 941 1392T1065 963V559ZM975 559V963Q975 1123 931 1232T802 1396T594 1450Q471 1450 386
1396T257 1233T213 963V559Q213 443 238 349T312 193T432 101T594 70Q778 70 876 194T975 559Z" />
<glyph unicode="1" glyph-name="one" horiz-adv-x="1188" d="M655 41Q655 23 643 12T614 0H606Q591 0 578 12T565 41V1434L324 1403H313Q283 1403 283 1430V1440Q283 1474 324 1481L608 1522H618Q655 1522 655 1481V41Z" />
<glyph unicode="2" glyph-name="two" horiz-adv-x="1188" d="M1024 1174Q1024 1059 966 973T748 780L539 639Q445 576 386 519T300 408T264 301T256 166V84H965Q1006 84 1006 53V31Q1006 0 965 0H205Q186 0 175 12T164 41V166Q164 275 187 362T280 535T481 709L690
850Q788 917 836 963T905 1059T926 1174Q926 1267 888 1327T766 1416T549 1446Q390 1446 236 1415Q231 1415 229 1415T225 1413Q193 1413 193 1446V1468Q193 1493 231 1501Q373 1532 549 1532Q1024 1532 1024 1174Z" />
<glyph unicode="3" glyph-name="three" horiz-adv-x="1188" d="M1016 422Q1016 198 883 93T508 -12Q355 -12 209 18Q172 27 172 55V68Q172 100 205 100H213Q373 74 508 74Q721 74 820 156T920 422V463Q920 525 890 593T794 708T629 756H246Q229 756 218 766T207
793V807Q207 823 218 833T246 844H629Q737 844 803 890T894 1002T920 1133V1157Q920 1271 875 1334T742 1421T508 1446Q391 1446 213 1415H205Q172 1415 172 1448V1464Q172 1494 209 1501Q374 1532 508 1532Q673 1532 785 1499T956 1384T1016 1157V1133Q1016 1023
966 934T803 795Q877 761 925 704T995 584T1016 463V422Z" />
<glyph unicode="4" glyph-name="four" horiz-adv-x="1188" d="M1110 477Q1110 442 1071 442H866V39Q866 23 857 12T834 0H809Q776 0 776 39V442H209Q148 442 113 474T78 553Q78 596 106 639L680 1481Q714 1532 784 1532Q820 1532 843 1508T866 1434V528H1071Q1087
528 1098 520T1110 496V477ZM776 528V1421Q776 1438 764 1438Q756 1438 743 1421L184 600Q164 568 164 553Q164 528 209 528H776Z" />
<glyph unicode="5" glyph-name="five" horiz-adv-x="1188" d="M1030 440Q1030 331 994 246T888 104T723 17T512 -12Q412 -12 349 -4T197 25Q158 32 158 63V86Q158 113 184 113Q195 113 201 111Q285 92 362 83T512 74Q650 74 745 115T890 237T940 440V492Q940 611
889 680T730 779T446 809H229Q212 809 200 820T188 850V854L236 1487Q237 1501 250 1511T276 1522H944Q961 1522 973 1513T985 1489V1466Q985 1438 944 1438H324L287 893H446Q611 893 725 868T905 792T1000 669T1030 492V440Z" />
<glyph unicode="6" glyph-name="six" horiz-adv-x="1188" d="M1057 514Q1057 385 1030 287T946 122T799 22T584 -12Q431 -12 330 46T180 221T131 518V999Q131 1281 256 1406T633 1532Q733 1532 807 1522T958 1493Q1004 1485 1004 1456V1436Q1004 1407 971 1407Q961
1407 954 1409Q866 1429 800 1437T633 1446Q489 1446 399 1404T265 1261T221 999V872Q431 926 600 926Q722 926 825 888T992 760T1057 524V514ZM967 514V524Q967 696 862 769T600 842Q508 842 401 827T221 793V518Q221 277 307 174T584 70Q773 70 870 174T967 514Z"
/>
<glyph unicode="7" glyph-name="seven" horiz-adv-x="1188" d="M1059 1450Q1059 1425 1049 1405L393 20Q390 13 377 7T356 0H326Q295 0 295 31Q295 43 301 55L948 1405Q950 1409 950 1417Q950 1434 934 1434H168Q150 1434 139 1443T127 1466V1483Q127 1498 139
1510T168 1522H979Q1015 1522 1037 1503T1059 1450Z" />
<glyph unicode="8" glyph-name="eight" horiz-adv-x="1188" d="M1073 403Q1073 199 942 94T594 -12Q377 -12 246 93T115 403V465Q115 524 138 589T209 709T328 797Q229 833 172 919T115 1114V1159Q115 1284 174 1368T343 1492T594 1532Q737 1532 845 1492T1013
1368T1073 1159V1114Q1073 1046 1048 981T974 869T860 797Q962 751 1017 656T1073 465V403ZM977 1114V1159Q977 1306 880 1376T594 1446Q405 1446 308 1376T211 1159V1114Q211 1006 280 925T510 844H678Q836 844 906 925T977 1114ZM977 403V465Q977 507 963 556T914
650T821 726T678 756H510Q426 756 368 726T275 649T226 555T211 465V403Q211 242 310 158T594 74Q779 74 878 158T977 403Z" />
<glyph unicode="9" glyph-name="nine" horiz-adv-x="1188" d="M1057 520Q1057 331 1001 214T833 42T555 -12Q455 -12 392 -4T229 27Q184 35 184 63V84Q184 113 217 113Q227 113 233 111Q344 89 405 82T555 74Q664 74 740 98T867 173T942 309T967 520V647Q753 594
588 594Q500 594 418 614T272 681T170 806T131 995V1006Q131 1271 245 1401T604 1532Q757 1532 857 1475T1007 1299T1057 1001V520ZM967 727V1001Q967 1243 881 1346T604 1450Q414 1450 318 1346T221 1006V995Q221 824 327 751T588 678Q680 678 787 693T967 727Z"
/>
<glyph unicode=":" glyph-name="colon" horiz-adv-x="365" d="M227 920Q227 903 216 892T188 881H176Q160 881 149 892T137 920V1071Q137 1086 148 1098T176 1110H188Q205 1110 216 1099T227 1071V920ZM227 27Q227 10 216 -1T188 -12H176Q160 -12 149 -1T137 27V178Q137
193 148 205T176 217H188Q205 217 216 206T227 178V27Z" />
<glyph unicode=";" glyph-name="semicolon" horiz-adv-x="365" d="M227 920Q227 903 216 892T188 881H176Q160 881 149 892T137 920V1071Q137 1086 148 1098T176 1110H188Q205 1110 216 1099T227 1071V920ZM242 195Q242 190 238 178L109 -166Q101 -187 93 -196T70
-205H45Q25 -205 25 -184Q25 -178 29 -166L137 178Q148 217 178 217H217Q242 217 242 195Z" />
<glyph unicode="&lt;" glyph-name="less" horiz-adv-x="1188" d="M883 326Q883 312 872 303L858 289Q850 281 838 281Q823 281 805 295L260 741Q229 767 229 801Q229 835 260 860L805 1307Q823 1321 838 1321Q850 1321 858 1313L872 1298Q883 1289 883 1276Q883
1257 866 1245L324 801L866 356Q883 344 883 326Z" />
<glyph unicode="=" glyph-name="equal" horiz-adv-x="1188" d="M1010 995Q1010 963 969 963H221Q180 963 180 995V1016Q180 1031 192 1040T221 1049H969Q985 1049 997 1040T1010 1016V995ZM1010 586Q1010 553 969 553H221Q180 553 180 586V606Q180 639 221 639H969Q1010
639 1010 606V586Z" />
<glyph unicode="&gt;" glyph-name="greater" horiz-adv-x="1188" d="M987 801Q987 766 956 741L412 295Q393 281 379 281Q367 281 358 289L344 303Q334 313 334 326Q334 343 350 356L893 801L350 1245Q334 1258 334 1276Q334 1288 344 1298L358 1313Q367 1321
379 1321Q393 1321 412 1307L956 860Q987 836 987 801Z" />
<glyph unicode="?" glyph-name="question" horiz-adv-x="868" d="M745 1219Q745 1126 699 1046T520 831L459 770Q405 716 380 681T345 611T336 516V393Q336 377 325 366T297 354H285Q269 354 258 365T246 393V516Q246 582 259 631T302 725T397 836L455 893Q541
980 579 1030T632 1122T647 1219V1235Q647 1350 575 1401T350 1452Q272 1452 102 1438H98Q72 1438 72 1462V1479Q72 1512 106 1518Q224 1532 350 1532Q520 1532 632 1462T745 1235V1219ZM334 27Q334 11 323 0T295 -12H283Q267 -12 256 -1T244 27V178Q244 193 255
205T283 217H295Q312 217 323 205T334 178V27Z" />
<glyph unicode="@" glyph-name="at" horiz-adv-x="1552" d="M1450 764Q1450 555 1412 435T1284 250Q1202 189 1066 161T727 133Q583 133 511 207T438 401Q438 426 440 438L463 680Q471 768 509 836T618 942T793 981Q918 981 1044 952Q1073 945 1073 926V922L1010
227Q1134 243 1207 287T1312 400T1353 547T1362 764Q1362 900 1301 1010T1122 1184T840 1247Q668 1247 532 1176T316 981T221 707L193 416Q190 395 190 356Q190 256 221 170T318 17T483 -87T713 -125Q826 -125 971 -115H973H979Q1010 -115 1010 -139Q1010 -147
1008 -154Q1003 -181 967 -186Q846 -203 705 -203Q563 -203 450 -159T257 -35T140 145T102 356Q102 395 104 416L133 709Q150 883 240 1023T486 1245T846 1327Q990 1327 1104 1282T1295 1156T1411 976T1450 764ZM981 883Q857 901 788 901Q569 901 549 678L526 438Q524
426 524 403Q524 346 545 304T612 238T727 215H797Q883 215 922 221L981 883Z" />
<glyph unicode="A" glyph-name="A" horiz-adv-x="1268" d="M1190 25Q1190 -6 1157 -6H1133Q1107 -6 1100 20L928 575H338L170 20Q161 -6 137 -6H111Q80 -6 80 27Q80 39 82 45L502 1432Q516 1480 550 1506T635 1532Q684 1532 718 1507T766 1434L1186 45Q1190 33
1190 25ZM905 666L682 1409Q670 1450 635 1450Q598 1450 588 1411L362 666H905Z" />
<glyph unicode="B" glyph-name="B" horiz-adv-x="1188" d="M1081 416Q1081 -14 510 -14Q350 -14 203 2Q164 5 164 41V1481Q164 1495 175 1506T203 1520Q371 1532 510 1532Q760 1532 916 1452T1073 1161V1139Q1073 1013 1010 927T829 799Q949 764 1015 675T1081
451V416ZM983 1139V1161Q983 1332 855 1392T510 1452Q441 1452 363 1449T254 1444V844H625Q824 844 903 925T983 1139ZM991 416V451Q991 587 908 671T625 756H254V80Q430 68 510 68Q648 68 754 95T926 199T991 416Z" />
<glyph unicode="C" glyph-name="C" horiz-adv-x="1100" d="M1018 43Q1018 29 1006 20T979 8Q802 -12 625 -12Q522 -12 434 20T275 127T164 326T123 625V895Q123 1070 163 1194T275 1393T434 1500T625 1532Q820 1532 979 1511Q995 1509 1006 1500T1018 1477V1452Q1018
1427 991 1427H979Q823 1446 625 1446Q438 1446 326 1313T213 895V625Q213 339 325 207T625 74Q813 74 979 92H991Q1018 92 1018 68V43Z" />
<glyph unicode="D" glyph-name="D" horiz-adv-x="1255" d="M1133 633Q1133 296 973 142T535 -12Q293 -12 199 4Q185 7 175 18T164 43V1477Q164 1491 175 1502T199 1516Q293 1532 535 1532Q671 1532 779 1498T967 1388T1089 1188T1133 887V633ZM1042 633V887Q1042
1193 907 1322T535 1452Q492 1452 444 1451T340 1446T254 1440V76Q374 68 535 68Q686 68 799 121T977 300T1042 633Z" />
<glyph unicode="E" glyph-name="E" horiz-adv-x="1092" d="M979 35Q979 0 940 0H412Q329 0 275 22T193 94T164 229V1292Q164 1417 226 1469T412 1522H940Q956 1522 967 1513T979 1487V1470Q979 1438 940 1438H412Q330 1438 292 1409T254 1292V842H940Q958 842
968 833T979 809V788Q979 754 940 754H254V229Q254 140 292 112T412 84H940Q979 84 979 51V35Z" />
<glyph unicode="F" glyph-name="F" horiz-adv-x="1061" d="M979 788Q979 754 940 754H254V39Q254 22 244 11T219 0H199Q184 0 174 12T164 39V1292Q164 1417 226 1469T412 1522H940Q956 1522 967 1513T979 1487V1470Q979 1438 940 1438H412Q330 1438 292 1409T254
1292V842H940Q958 842 968 833T979 809V788Z" />
<glyph unicode="G" glyph-name="G" horiz-adv-x="1204" d="M1040 1458Q1040 1427 1010 1427H997Q794 1448 637 1448Q457 1448 335 1320T213 887V633Q213 351 324 213T637 74Q743 74 824 80T948 92V743Q948 759 957 770T983 782H1004Q1020 782 1029 772T1038 743V53Q1038
39 1028 28T1004 14Q906 2 826 -5T637 -12Q486 -12 371 56T190 270T123 633V887Q123 1071 167 1197T286 1398T449 1502T637 1532Q838 1532 1006 1511Q1040 1507 1040 1479V1458Z" />
<glyph unicode="H" glyph-name="H" horiz-adv-x="1325" d="M1161 39Q1161 0 1126 0H1108Q1073 0 1073 39V772H254V39Q254 22 244 11T219 0H199Q184 0 174 12T164 39V1483Q164 1498 174 1510T199 1522H219Q234 1522 244 1511T254 1483V856H1073V1483Q1073 1522
1108 1522H1126Q1161 1522 1161 1483V39Z" />
<glyph unicode="I" glyph-name="I" horiz-adv-x="459" d="M274 39Q274 23 265 12T240 0H219Q204 0 194 12T184 39V1483Q184 1498 194 1510T219 1522H240Q255 1522 264 1511T274 1483V39Z" />
<glyph unicode="J" glyph-name="J" horiz-adv-x="459" d="M274 -123Q274 -220 247 -280T156 -369T-20 -399H-49Q-90 -399 -90 -371V-350Q-90 -319 -49 -319H-20Q66 -319 108 -304T167 -247T184 -123V1483Q184 1498 194 1510T219 1522H240Q255 1522 264 1511T274
1483V-123Z" />
<glyph unicode="K" glyph-name="K" horiz-adv-x="1110" d="M1049 29Q1049 -4 1010 -4Q979 -4 963 12L254 750V39Q254 22 244 11T219 0H199Q184 0 174 12T164 39V1483Q164 1498 176 1510T203 1522H215Q230 1522 242 1511T254 1483V827L950 1507Q975 1530 997 1530Q1013
1530 1024 1520T1036 1495Q1036 1474 1020 1458L332 791L1034 61Q1049 46 1049 29Z" />
<glyph unicode="L" glyph-name="L" horiz-adv-x="989" d="M918 35Q918 0 879 0H412Q329 0 275 22T193 94T164 229V1483Q164 1498 174 1510T199 1522H219Q234 1522 244 1511T254 1483V229Q254 140 292 112T412 84H879Q918 84 918 51V35Z" />
<glyph unicode="M" glyph-name="M" horiz-adv-x="1495" d="M1331 39Q1331 22 1321 11T1296 0H1276Q1261 0 1251 12T1241 39V1432Q1241 1446 1227 1446Q1214 1446 1206 1427L852 680Q831 637 807 622T748 606Q712 606 689 621T643 680L289 1427Q281 1446 268 1446Q254
1446 254 1432V39Q254 22 244 11T219 0H199Q184 0 174 12T164 39V1432Q164 1482 192 1507T268 1532Q333 1532 362 1468L721 717Q732 690 748 690Q763 690 774 717L1133 1468Q1162 1532 1227 1532Q1277 1532 1304 1507T1331 1432V39Z" />
<glyph unicode="N" glyph-name="N" horiz-adv-x="1333" d="M1169 92Q1169 45 1143 17T1077 -12H1075Q1047 -12 1033 -10T1008 2Q986 19 971 49L281 1432Q272 1446 264 1446Q254 1446 254 1432V39Q254 22 244 11T219 0H199Q184 0 174 12T164 39V1432Q164 1479 192
1505T264 1532Q305 1532 326 1517T362 1468L1051 88Q1058 74 1067 74Q1077 74 1077 92V1483Q1077 1500 1086 1511T1110 1522H1135Q1151 1522 1160 1511T1169 1483V92Z" />
<glyph unicode="O" glyph-name="O" horiz-adv-x="1294" d="M1171 633Q1171 411 1105 267T921 56T647 -12Q491 -12 373 55T189 267T123 633V887Q123 1052 161 1176T270 1379T435 1495T647 1532Q765 1532 860 1495T1025 1379T1133 1176T1171 887V633ZM1081 633V887Q1081
1086 1026 1211T874 1391T647 1446Q213 1446 213 887V633Q213 74 647 74Q777 74 874 128T1026 308T1081 633Z" />
<glyph unicode="P" glyph-name="P" horiz-adv-x="1106" d="M1034 1081Q1034 848 892 746T477 643Q368 643 254 651V39Q254 22 244 11T219 0H199Q184 0 174 12T164 39V1483Q164 1496 174 1508T199 1522Q307 1528 356 1530T477 1532Q1034 1532 1034 1116V1081ZM944
1081V1116Q944 1301 830 1376T477 1452Q343 1452 254 1446V731Q380 723 477 723Q601 723 686 742T830 805T916 915T944 1081Z" />
<glyph unicode="Q" glyph-name="Q" horiz-adv-x="1294" d="M1171 633Q1171 423 1111 282T943 69T690 -10V-147Q690 -208 696 -240T720 -289T777 -312T881 -319H924Q940 -319 952 -328T965 -352V-367Q965 -399 924 -399H881Q779 -399 721 -382T631 -310T600 -147V-10Q456
-1 349 70T183 283T123 633V887Q123 1052 161 1176T270 1379T435 1495T647 1532Q765 1532 860 1495T1025 1379T1133 1176T1171 887V633ZM1081 633V887Q1081 1086 1026 1211T874 1391T647 1446Q213 1446 213 887V633Q213 74 647 74Q777 74 874 128T1026 308T1081
633Z" />
<glyph unicode="R" glyph-name="R" horiz-adv-x="1225" d="M1133 31Q1133 0 1100 0H1073Q1058 0 1042 18L606 686H573H518Q437 687 369 687T254 688V39Q254 22 244 11T219 0H199Q184 0 174 12T164 39V1485Q164 1498 174 1510T199 1524Q240 1526 356 1529T518 1532Q664
1532 766 1510T937 1440T1040 1311T1075 1114V1104Q1075 1012 1052 942T984 823T871 744T709 696L1122 59Q1133 41 1133 31ZM985 1104V1114Q985 1299 872 1372T518 1446Q335 1446 254 1438V774Q333 774 392 774T518 772Q683 772 784 801T935 902T985 1104Z" />
<glyph unicode="S" glyph-name="S" horiz-adv-x="1085" d="M973 379Q973 273 934 187T788 44T498 -12Q451 -12 384 -8T268 1T180 10Q165 12 154 20T143 43V70Q143 96 182 96H190Q236 93 338 84T498 74Q645 74 729 113T846 219T879 379Q879 452 849 502T759 596T563
725L434 805Q324 873 258 926T153 1046T113 1200Q113 1532 592 1532Q692 1532 897 1511Q932 1508 932 1481V1454Q932 1425 893 1425Q873 1425 816 1430T699 1441T590 1446Q457 1446 371 1420T245 1338T205 1198Q205 1135 235 1086T319 994T481 885L612 805Q735
732 813 671T932 539T973 379Z" />
<glyph unicode="T" glyph-name="T" horiz-adv-x="1169" d="M1108 1468Q1108 1438 1069 1438H631V39Q631 24 621 12T596 0H575Q561 0 551 12T541 39V1438H100Q61 1438 61 1468V1487Q61 1503 72 1512T100 1522H1069Q1085 1522 1096 1513T1108 1487V1468Z" />
<glyph unicode="U" glyph-name="U" horiz-adv-x="1296" d="M1133 541Q1133 274 1014 131T649 -12Q485 -12 377 53T216 243T164 541V1483Q164 1498 174 1510T199 1522H219Q234 1522 244 1511T254 1483V541Q254 390 293 286T421 127T649 72Q789 72 876 126T1003
285T1042 541V1483Q1042 1498 1052 1510T1077 1522H1098Q1113 1522 1123 1510T1133 1483V541Z" />
<glyph unicode="V" glyph-name="V" horiz-adv-x="1290" d="M1200 1485Q1200 1475 1198 1470L778 88Q749 -12 645 -12Q541 -12 512 88L92 1470Q90 1475 90 1485Q90 1522 125 1522H147Q173 1522 180 1493L598 115Q610 74 645 74Q680 74 692 115L1110 1493Q1117 1522
1143 1522H1165Q1200 1522 1200 1485Z" />
<glyph unicode="W" glyph-name="W" horiz-adv-x="1614" d="M1522 1485V1475L1270 84Q1252 -12 1171 -12Q1130 -12 1110 11T1073 80L823 872Q816 897 807 897Q798 897 791 872L541 80Q527 37 506 13T442 -12Q361 -12 344 84L92 1475V1485Q92 1501 100 1511T125
1522H145Q176 1522 182 1489L430 102Q435 72 442 72Q447 72 450 78T459 102L715 899Q739 979 807 979Q875 979 899 899L1155 102Q1160 84 1163 78T1171 72Q1179 72 1184 102L1432 1489Q1438 1522 1468 1522H1489Q1504 1522 1513 1512T1522 1485Z" />
<glyph unicode="X" glyph-name="X" horiz-adv-x="1233" d="M1149 33Q1149 0 1116 0H1100Q1081 0 1067 18L616 700L166 18Q153 0 133 0H115Q82 0 82 33Q82 48 90 59L563 778L113 1460Q102 1476 102 1491Q102 1522 133 1522H156Q174 1522 188 1503L614 856L1042
1503Q1059 1522 1075 1522H1094Q1126 1522 1126 1489Q1126 1471 1118 1460L668 776L1141 59Q1149 48 1149 33Z" />
<glyph unicode="Y" glyph-name="Y" horiz-adv-x="1128" d="M1034 1493Q1034 1483 1028 1466L705 752Q659 653 608 633V39Q608 22 598 11T573 0H553Q538 0 528 12T518 39V633Q468 652 422 752L98 1466Q92 1483 92 1493Q92 1522 127 1522H147Q156 1522 165 1514T180
1497L502 780Q522 736 533 723T563 709Q581 709 593 723T625 780L946 1497Q959 1522 979 1522H999Q1034 1522 1034 1493Z" />
<glyph unicode="Z" glyph-name="Z" horiz-adv-x="1219" d="M1096 33Q1096 17 1084 9T1053 0H250Q139 0 139 88Q139 128 162 162L938 1411Q942 1417 942 1425Q942 1438 926 1438H184Q141 1438 141 1468V1489Q141 1503 154 1512T184 1522H926Q985 1522 1010 1505Q1044
1485 1044 1440Q1044 1409 1022 1370L240 106Q236 98 236 92Q236 84 250 84H1053Q1096 84 1096 53V33Z" />
<glyph unicode="[" glyph-name="bracketleft" horiz-adv-x="610" d="M569 -367Q569 -399 530 -399H219Q204 -399 194 -387T184 -360V1483Q184 1498 194 1510T219 1522H530Q546 1522 557 1513T569 1487V1470Q569 1438 530 1438H274V-315H530Q546 -315 557 -324T569
-350V-367Z" />
<glyph unicode="\" glyph-name="backslash" horiz-adv-x="666" d="M625 12Q625 -12 604 -12H559Q538 -12 526 27L45 1493Q43 1497 43 1507Q43 1532 66 1532H109Q128 1532 141 1493L623 27Q625 23 625 12Z" />
<glyph unicode="]" glyph-name="bracketright" horiz-adv-x="610" d="M426 -360Q426 -377 416 -388T391 -399H80Q41 -399 41 -367V-350Q41 -334 52 -325T80 -315H336V1438H80Q41 1438 41 1470V1487Q41 1503 52 1512T80 1522H391Q406 1522 416 1511T426 1483V-360Z" />
<glyph unicode="^" glyph-name="asciicircum" horiz-adv-x="1188" d="M946 1165Q946 1147 924 1147H887Q875 1147 867 1151T851 1167T834 1188L594 1473L354 1188Q347 1178 338 1167T321 1152T301 1147H264Q242 1147 242 1165Q242 1175 252 1188L492 1495Q519
1532 547 1532H641Q669 1532 696 1495L936 1188Q946 1175 946 1165Z" />
<glyph unicode="_" glyph-name="underscore" horiz-adv-x="952" d="M1014 -168Q1014 -183 1002 -192T973 -201H-20Q-38 -201 -49 -192T-61 -168V-147Q-61 -115 -20 -115H973Q1014 -115 1014 -147V-168Z" />
<glyph unicode="`" glyph-name="grave" horiz-adv-x="676" d="M434 1280Q434 1266 416 1266H371Q358 1266 351 1272T326 1300L106 1563Q98 1571 98 1579Q98 1593 121 1593H174Q196 1593 221 1563L426 1300Q434 1292 434 1280Z" />
<glyph unicode="a" glyph-name="a" horiz-adv-x="999" d="M856 41Q856 23 844 12T815 0H805Q788 0 776 12T764 41V92Q575 -12 416 -12Q283 -12 193 65T102 317V344Q102 424 130 483T217 582T372 640T608 659H766V733Q766 839 743 905T664 1000T508 1030Q421 1030
376 1027T217 1012H209Q170 1012 170 1042V1055Q170 1084 217 1092Q372 1110 508 1110Q702 1110 779 1013T856 733V41ZM766 172V580H608Q453 580 363 557T233 483T193 344V317Q193 68 416 68Q498 68 581 92T766 172Z" />
<glyph unicode="b" glyph-name="b" horiz-adv-x="1032" d="M920 485Q920 333 878 222T746 50T518 -12Q359 -12 174 27Q157 31 150 39T143 66V1483Q143 1498 153 1510T178 1522H199Q214 1522 223 1511T233 1483V1079Q367 1110 518 1110Q719 1110 819 987T920 621V485ZM829
485V621Q829 760 798 849T699 984T518 1030Q446 1030 371 1024T233 1004V94Q393 68 518 68Q685 68 757 173T829 485Z" />
<glyph unicode="c" glyph-name="c" horiz-adv-x="895" d="M805 43Q805 25 796 17T766 6Q611 -12 518 -12Q411 -12 334 26T207 133T136 291T113 483V621Q113 765 154 874T286 1046T518 1110Q563 1110 623 1106T766 1092Q805 1086 805 1055V1040Q805 1012 772 1012H762Q618
1030 518 1030Q351 1030 277 924T203 621V483Q203 287 277 178T518 68Q618 68 762 86H772Q805 86 805 57V43Z" />
<glyph unicode="d" glyph-name="d" horiz-adv-x="1032" d="M889 66Q889 46 882 39T858 27Q673 -12 514 -12Q310 -12 212 121T113 485V621Q113 863 214 986T514 1110Q665 1110 799 1079V1483Q799 1498 809 1510T834 1522H854Q869 1522 879 1510T889 1483V66ZM799
94V1004Q736 1017 661 1023T514 1030Q350 1030 277 929T203 621V485Q203 280 275 174T514 68Q639 68 799 94Z" />
<glyph unicode="e" glyph-name="e" horiz-adv-x="1047" d="M934 567Q934 551 923 540T895 528H203V485Q203 320 251 229T380 103T573 68Q705 68 877 102Q880 103 882 103T889 104Q920 104 920 76V61Q920 44 912 36T881 23Q716 -12 573 -12Q473 -12 391 12T246
94T148 248T113 485V621Q113 763 160 874T301 1047T526 1110Q663 1110 755 1050T890 880T934 623V567ZM844 610V623Q844 826 770 928T526 1030Q415 1030 343 979T237 836T203 621V610H844Z" />
<glyph unicode="f" glyph-name="f" horiz-adv-x="772" d="M700 1479Q700 1452 657 1452H555Q505 1452 475 1437T429 1386T414 1290V1100H657Q675 1100 685 1091T696 1067V1049Q696 1016 657 1016H414V39Q414 23 403 12T377 0H362Q347 0 336 11T324 39V1016H121Q82
1016 82 1049V1067Q82 1082 93 1091T121 1100H324V1290Q324 1418 382 1475T555 1532Q622 1532 662 1526Q700 1521 700 1493V1479Z" />
<glyph unicode="g" glyph-name="g" horiz-adv-x="1094" d="M1001 1044Q1001 1028 990 1020T963 1012H856Q969 921 969 758V741Q969 584 871 496T545 408Q468 408 413 419T295 455Q225 424 225 367Q225 318 285 303L653 207Q831 162 906 105T981 -70V-88Q981 -406
547 -406Q322 -406 218 -321T113 -88V-70Q113 28 160 108T266 225L252 229Q198 246 171 282T143 367Q143 407 165 443T229 498Q123 585 123 741V758Q123 847 158 923T287 1050T545 1100H963Q980 1100 990 1091T1001 1067V1044ZM881 741V758Q881 836 851 895T747
988T545 1022Q353 1022 283 950T213 758V741Q213 681 240 623T341 525T545 485Q672 485 747 518T852 607T881 741ZM891 -88V-70Q891 -11 871 21T797 77T633 129L350 203Q277 155 239 91T201 -70V-88Q201 -146 219 -190T276 -264T383 -312T547 -330Q740 -330 815
-270T891 -88Z" />
<glyph unicode="h" glyph-name="h" horiz-adv-x="1034" d="M901 39Q901 0 866 0H846Q831 0 822 11T813 39V717Q813 873 741 951T510 1030Q358 1030 233 993V39Q233 23 224 12T199 0H178Q163 0 153 12T143 39V1483Q143 1498 153 1510T178 1522H199Q214 1522 223
1511T233 1483V1073Q294 1090 368 1100T510 1110Q714 1110 807 1006T901 717V39Z" />
<glyph unicode="i" glyph-name="i" horiz-adv-x="418" d="M254 1341Q254 1325 243 1314T215 1303H203Q187 1303 176 1314T164 1341V1493Q164 1508 176 1520T203 1532H215Q230 1532 242 1521T254 1493V1341ZM254 39Q254 23 242 12T215 0H203Q188 0 176 12T164 39V1061Q164
1076 176 1088T203 1100H215Q230 1100 242 1089T254 1061V39Z" />
<glyph unicode="j" glyph-name="j" horiz-adv-x="418" d="M254 1341Q254 1325 243 1314T215 1303H203Q187 1303 176 1314T164 1341V1493Q164 1508 176 1520T203 1532H215Q230 1532 242 1521T254 1493V1341ZM254 -176Q254 -303 203 -351T43 -399Q4 -399 -43 -393Q-64
-390 -71 -384T-78 -365V-346Q-78 -322 -35 -322H43Q88 -322 114 -311T152 -270T164 -176V1061Q164 1078 173 1089T197 1100H219Q254 1100 254 1061V-176Z" />
<glyph unicode="k" glyph-name="k" horiz-adv-x="909" d="M829 20Q829 6 819 -3T791 -12Q754 -12 729 12L233 543V39Q233 23 222 12T195 0H182Q167 0 155 12T143 39V1483Q143 1498 155 1510T182 1522H195Q210 1522 221 1511T233 1483V621L737 1092Q760 1110 786
1110Q805 1110 816 1099T827 1073Q827 1055 813 1042L311 584L815 51Q829 34 829 20Z" />
<glyph unicode="l" glyph-name="l" horiz-adv-x="418" d="M254 39Q254 22 244 11T219 0H199Q184 0 174 12T164 39V1483Q164 1498 174 1510T199 1522H219Q234 1522 244 1511T254 1483V39Z" />
<glyph unicode="m" glyph-name="m" horiz-adv-x="1528" d="M1384 39Q1384 23 1375 12T1350 0H1329Q1294 0 1294 39V772Q1294 913 1234 971T1055 1030Q988 1030 916 1011T778 961Q809 883 809 780V39Q809 0 778 0H748Q719 0 719 39V780Q719 1030 526 1030Q415 1030
233 944V39Q233 0 203 0H174Q143 0 143 39V1059Q143 1075 154 1087T180 1100H197Q213 1100 223 1089T233 1059V1022Q309 1060 390 1085T545 1110Q669 1110 739 1026Q916 1110 1069 1110Q1160 1110 1230 1075T1342 964T1384 772V39Z" />
<glyph unicode="n" glyph-name="n" horiz-adv-x="1067" d="M924 39Q924 23 913 12T885 0H870Q855 0 845 11T834 39V719Q834 883 759 956T557 1030Q483 1030 400 1008T233 946V39Q233 23 222 12T195 0H182Q167 0 155 12T143 39V1059Q143 1075 154 1087T180 1100H197Q213
1100 223 1089T233 1059V1026Q409 1110 563 1110Q643 1110 707 1089T820 1020T896 899T924 719V39Z" />
<glyph unicode="o" glyph-name="o" horiz-adv-x="1069" d="M956 477Q956 323 909 213T768 46T535 -12Q397 -12 302 45T160 213T113 477V621Q113 775 160 885T302 1052T535 1110Q673 1110 767 1053T909 885T956 621V477ZM866 477V621Q866 749 833 840T726 981T535
1030Q417 1030 344 981T237 841T203 621V477Q203 280 282 174T535 68Q653 68 726 117T832 256T866 477Z" />
<glyph unicode="p" glyph-name="p" horiz-adv-x="1032" d="M920 477Q920 235 819 112T518 -12Q370 -12 233 18V-360Q233 -377 224 -388T199 -399H178Q163 -399 153 -387T143 -360V1032Q143 1050 149 1058T174 1071Q359 1110 518 1110Q656 1110 745 1049T877 876T920
612V477ZM829 477V612Q829 820 757 925T518 1030Q446 1030 377 1023T233 1004V94Q360 68 518 68Q630 68 698 113T798 248T829 477Z" />
<glyph unicode="q" glyph-name="q" horiz-adv-x="1032" d="M889 -360Q889 -375 879 -387T854 -399H834Q819 -399 809 -387T799 -360V18Q662 -12 514 -12Q381 -12 292 43T158 207T113 477V612Q113 764 155 875T287 1048T514 1110Q673 1110 858 1071Q877 1067 883
1060T889 1032V-360ZM799 94V1004Q725 1016 656 1023T514 1030Q348 1030 276 925T203 612V477Q203 378 220 301T275 172T372 94T514 68Q672 68 799 94Z" />
<glyph unicode="r" glyph-name="r" horiz-adv-x="633" d="M573 1063Q573 1030 518 1030Q383 1030 233 936V39Q233 23 222 12T195 0H182Q167 0 155 12T143 39V1059Q143 1075 154 1087T180 1100H197Q213 1100 223 1089T233 1059V1016Q311 1066 377 1088T518 1110Q573
1110 573 1079V1063Z" />
<glyph unicode="s" glyph-name="s" horiz-adv-x="901" d="M799 272Q799 120 702 54T444 -12Q384 -12 296 -4T147 16Q102 27 102 49V72Q102 100 135 100H147Q345 68 449 68Q573 68 641 112T709 272Q709 335 665 380T492 496L360 567Q274 614 222 653T142 742T113
858Q113 926 138 976T206 1055T307 1096T426 1110Q562 1110 719 1092Q762 1085 762 1057V1040Q762 1008 725 1008H719Q525 1030 434 1030Q321 1030 262 995T203 858Q203 794 249 749T401 645L539 569Q681 491 740 430T799 272Z" />
<glyph unicode="t" glyph-name="t" horiz-adv-x="778" d="M696 27Q696 -1 662 -6Q616 -12 555 -12Q438 -12 381 36T324 209V1016H121Q82 1016 82 1049V1069Q82 1100 121 1100H324V1311Q324 1350 358 1350H381Q395 1350 404 1339T414 1311V1100H657Q696 1100 696
1069V1049Q696 1016 657 1016H414V209Q414 123 447 96T555 68H653Q696 68 696 39V27Z" />
<glyph unicode="u" glyph-name="u" horiz-adv-x="1067" d="M924 41Q924 24 913 12T887 0H870Q854 0 844 12T834 41V74Q752 35 668 13T504 -10Q402 -10 321 30T191 157T143 381V1061Q143 1077 154 1088T182 1100H197Q211 1100 222 1088T233 1061V381Q233 218 307
144T506 70H510Q654 70 834 154V1061Q834 1076 846 1088T872 1100H885Q900 1100 912 1088T924 1061V41Z" />
<glyph unicode="v" glyph-name="v" horiz-adv-x="983" d="M903 1069Q903 1055 901 1049L633 117Q612 40 579 14T494 -12Q444 -12 409 14T350 117L82 1049Q80 1055 80 1065Q80 1100 113 1100H133Q160 1100 170 1063L432 139Q455 66 494 66Q513 66 525 81T551 139L813
1063Q823 1100 850 1100H874Q903 1100 903 1069Z" />
<glyph unicode="w" glyph-name="w" horiz-adv-x="1540" d="M1440 1061Q1440 1058 1440 1056T1438 1051L1212 98Q1203 59 1190 35T1157 -1T1106 -12Q1075 -12 1055 1T1024 39T1001 104L784 883Q780 901 772 901H770H768Q761 901 756 883L539 104Q522 42 502 15T434
-12Q403 -12 383 -1T350 34T328 98L102 1051Q102 1055 102 1057T100 1061Q100 1077 111 1088T139 1100H152Q176 1100 184 1071L406 119Q416 68 430 68H434Q447 68 461 117L682 907Q701 981 770 981Q839 981 858 907L1079 117Q1094 68 1106 68H1110Q1124 68 1135
119L1356 1071Q1364 1100 1389 1100H1401Q1417 1100 1428 1089T1440 1061Z" />
<glyph unicode="x" glyph-name="x" horiz-adv-x="1010" d="M932 29Q932 0 903 0H887Q859 0 848 16L508 492L174 16Q162 0 152 0H117Q88 0 88 25Q88 40 98 53L459 563L111 1051Q102 1062 102 1073Q102 1100 139 1100H152Q167 1100 177 1095T190 1083L514 633L827
1079Q842 1100 866 1100H885Q915 1100 915 1075Q915 1063 901 1040L563 559L926 51Q932 42 932 29Z" />
<glyph unicode="y" glyph-name="y" horiz-adv-x="995" d="M915 1065Q915 1055 913 1049L578 -115Q547 -224 506 -286T405 -373T246 -399Q193 -399 119 -387Q78 -380 78 -358V-336Q78 -307 109 -307H121Q214 -319 254 -319Q364 -319 413 -274T498 -96L524 0H496Q445
0 418 22T371 115L94 1051Q92 1055 92 1065Q92 1100 127 1100H145Q155 1100 165 1091T178 1071L455 129Q468 84 502 84H549L829 1073Q839 1100 866 1100H885Q915 1100 915 1065Z" />
<glyph unicode="z" glyph-name="z" horiz-adv-x="913" d="M831 33Q831 17 820 9T791 0H197Q140 0 111 24T82 84Q82 129 106 160L719 977Q727 989 727 997Q727 1016 698 1016H160Q119 1016 119 1047V1067Q119 1081 130 1090T160 1100H700Q750 1100 782 1076T815
1012Q815 963 782 920L188 123Q176 103 176 98Q176 84 197 84H791Q831 84 831 53V33Z" />
<glyph unicode="{" glyph-name="braceleft" horiz-adv-x="614" d="M573 -365Q573 -380 563 -389T535 -399H440Q344 -399 290 -379T212 -310T188 -174V244Q188 322 179 367T143 448T61 524V598Q116 638 142 674T178 755T188 879V1296Q188 1424 243 1473T440 1522H535Q552
1522 562 1513T573 1487V1470Q573 1455 563 1447T535 1438H440Q338 1438 309 1412T279 1296V879Q279 765 252 693T147 559Q222 500 250 428T279 244V-174Q279 -234 291 -264T335 -304T440 -315H535Q553 -315 563 -324T573 -348V-365Z" />
<glyph unicode="|" glyph-name="bar" horiz-adv-x="459" d="M274 -360Q274 -377 265 -388T240 -399H219Q204 -399 194 -387T184 -360V1483Q184 1498 194 1510T219 1522H240Q255 1522 264 1511T274 1483V-360Z" />
<glyph unicode="}" glyph-name="braceright" horiz-adv-x="614" d="M553 524Q498 484 472 448T436 367T426 244V-174Q426 -303 373 -351T174 -399H80Q41 -399 41 -365V-348Q41 -333 52 -324T80 -315H174Q247 -315 279 -305T324 -264T336 -174V244Q336 355 364
427T467 559Q415 601 387 646T347 747T336 879V1296Q336 1386 306 1412T174 1438H80Q41 1438 41 1470V1487Q41 1503 52 1512T80 1522H174Q268 1522 323 1501T402 1432T426 1296V879Q426 801 435 756T471 674T553 598V524Z" />
<glyph unicode="~" glyph-name="asciitilde" horiz-adv-x="1188" d="M975 940Q975 832 927 780T791 727Q702 727 633 793L516 905Q482 939 455 958T403 977Q293 977 293 838V776Q293 753 289 745T270 737H240Q213 737 213 776V838Q213 945 263 1000T401 1055Q486
1055 559 985L676 872Q744 809 788 809Q844 809 869 838T895 940V1004Q895 1024 899 1032T918 1040H948Q964 1040 969 1033T975 1004V940Z" />
</font>
</defs>
</svg>
