<?xml version="1.0" standalone="no"?> <!DOCTYPE svg PUBLIC "-//W3C//DTD SVG 1.0//EN" "http://www.w3.org/TR/2001/REC-SVG-20010904/DTD/svg10.dtd" > <svg xmlns="http://www.w3.org/2000/svg" width="100%" height="100%">
<defs >
<font id="neosans-regular" horiz-adv-x="1052" ><font-face
    font-family="Neo Sans"
    units-per-em="2048"
    panose-1="2 11 5 4 2 2 2 2 2 4"
    ascent="2124"
    descent="-444"
    alphabetic="0" />
<missing-glyph horiz-adv-x="1024" d="M51 0V1536H973V0H51ZM179 128H845V1408H179V128Z" />
<glyph unicode=" " glyph-name="space" horiz-adv-x="506" />
<glyph unicode="!" glyph-name="exclam" horiz-adv-x="444" d="M315 1501L299 436Q299 420 288 409T260 397H186Q172 397 159 408T145 436L131 1501Q131 1518 144 1529T172 1540H274Q291 1540 303 1529T315 1501ZM311 39Q311 22 300 11T272 0H174Q158 0 147 11T135
39V231Q135 247 146 258T174 270H272Q288 270 299 260T311 231V39Z" />
<glyph unicode="&quot;" glyph-name="quotedbl" horiz-adv-x="741" d="M682 1518Q682 1507 680 1501L561 1114Q550 1075 522 1075H426Q408 1075 408 1096Q408 1108 410 1114L504 1501Q512 1540 545 1540H659Q682 1540 682 1518ZM334 1518Q334 1507 332 1501L213
1114Q202 1075 174 1075H78Q59 1075 59 1096Q59 1108 61 1114L156 1501Q164 1540 197 1540H311Q334 1540 334 1518Z" />
<glyph unicode="#" glyph-name="numbersign" horiz-adv-x="1352" d="M1249 1049V1044L1245 999Q1242 961 1204 961H1006L969 547H1169Q1184 547 1193 536T1202 508V504L1198 461Q1195 422 1157 422H956L924 39Q920 0 887 0H797Q764 0 764 35V39L797 422H479L446
39Q442 0 410 0H317Q304 0 295 11T285 35V39L317 422H127Q112 422 103 433T94 461V465L98 508Q100 525 111 536T139 547H330L367 961H174Q160 961 151 972T141 999V1004L145 1049Q147 1066 158 1076T186 1087H377L412 1483Q413 1498 424 1510T451 1522H543Q557
1522 565 1512T573 1487V1483L539 1087H856L891 1483Q895 1522 930 1522H1020Q1051 1522 1051 1487V1483L1016 1087H1217Q1232 1087 1240 1076T1249 1049ZM846 961H528L492 547H809L846 961Z" />
<glyph unicode="$" glyph-name="dollar" horiz-adv-x="1239" d="M1081 395Q1081 244 997 134T707 -6V-199Q707 -214 694 -227T666 -240H569Q554 -240 541 -227T528 -199V-14Q380 -12 236 14Q212 18 205 25T197 51V135Q197 168 231 168H238Q450 150 575 150Q748
150 817 213T887 395Q887 445 865 486T790 569T641 670L442 791Q346 850 284 906T191 1028T160 1174Q160 1278 203 1353T327 1471T528 1530V1706Q528 1723 540 1735T569 1747H666Q683 1747 695 1735T707 1706V1536Q877 1530 1006 1509Q1040 1502 1040 1475V1386Q1040
1371 1031 1363T1006 1354H1001Q731 1372 649 1372Q539 1372 475 1353T379 1291T348 1174Q348 1105 397 1054T571 926L760 813Q936 710 1008 614T1081 395Z" />
<glyph unicode="%" glyph-name="percent" horiz-adv-x="1626" d="M1534 317Q1534 152 1463 69T1260 -14Q1174 -14 1112 22T1016 132T983 317V508Q983 620 1016 694T1111 804T1260 840Q1347 840 1408 804T1502 694T1534 508V317ZM1331 1509Q1331 1503 1321 1483L465
33Q450 8 442 0T420 -8H319Q299 -8 299 8Q299 22 307 33L1163 1483Q1181 1509 1188 1515T1210 1522H1315Q1331 1522 1331 1509ZM643 1016Q643 852 572 768T369 684Q283 684 221 721T125 833T92 1016V1206Q92 1373 164 1454T369 1536Q501 1536 572 1455T643 1206V1016ZM1407
317V508Q1407 723 1260 723Q1110 723 1110 508V317Q1110 102 1260 102Q1407 102 1407 317ZM516 1016V1206Q516 1421 369 1421Q219 1421 219 1206V1016Q219 801 369 801Q516 801 516 1016Z" />
<glyph unicode="&amp;" glyph-name="ampersand" horiz-adv-x="1389" d="M1313 23Q1313 0 1290 0H1149Q1130 0 1116 14L1014 125Q851 -14 610 -14Q398 -14 254 77T109 360V377Q109 501 177 591T403 780L389 797Q297 901 251 973T191 1094T176 1194V1210Q176 1369
290 1452T606 1536Q722 1536 814 1500T960 1389T1014 1210V1194Q1014 1087 951 1002T700 788L643 750L1014 350Q1055 423 1074 514T1094 711V739Q1094 772 1126 772H1214Q1249 772 1249 739V711Q1249 578 1216 456T1120 240L1303 45Q1313 35 1313 23ZM844 1194V1210Q844
1308 782 1353T606 1399Q482 1399 413 1355T344 1210V1194Q344 1151 355 1115T402 1028T518 887L539 864L608 907Q709 969 759 1012T826 1095T844 1194ZM915 231L508 668Q385 592 341 532T297 377V360Q297 243 386 185T610 127Q794 127 915 231Z" />
<glyph unicode="&apos;" glyph-name="quotesingle" horiz-adv-x="393" d="M334 1518Q334 1507 332 1501L213 1114Q202 1075 174 1075H78Q59 1075 59 1096Q59 1108 61 1114L156 1501Q164 1540 197 1540H311Q334 1540 334 1518Z" />
<glyph unicode="(" glyph-name="parenleft" horiz-adv-x="625" d="M573 -412Q573 -428 553 -428H457Q441 -428 431 -424T410 -406Q275 -241 199 14T123 543V569Q123 843 199 1098T410 1518Q428 1540 457 1540H553Q573 1540 573 1524Q573 1512 567 1503Q500 1403
451 1295T369 1071T320 828T303 569V543Q303 -3 567 -391Q573 -400 573 -412Z" />
<glyph unicode=")" glyph-name="parenright" horiz-adv-x="625" d="M530 543Q530 404 511 269T455 13T365 -217T244 -406Q234 -419 224 -423T197 -428H100Q80 -428 80 -412Q80 -400 86 -391Q350 -3 350 543V569Q350 711 333 838T282 1080T200 1302T86 1503Q80
1512 80 1524Q80 1540 100 1540H197Q225 1540 244 1518Q333 1408 397 1258T496 929T530 569V543Z" />
<glyph unicode="*" glyph-name="asterisk" horiz-adv-x="952" d="M858 1225Q858 1204 829 1194L573 1114L731 897Q741 884 741 870Q741 857 729 848L680 811Q671 805 664 805Q646 805 633 825L477 1042L322 825Q307 805 291 805Q285 805 274 811L223 848Q211 857
211 870Q211 884 221 897L381 1114L127 1194Q96 1206 96 1225Q97 1228 97 1230T98 1235L117 1294Q123 1315 143 1315Q150 1315 162 1311L416 1227V1495Q416 1534 446 1534H508Q539 1534 539 1495L537 1227L793 1311Q805 1315 811 1315Q832 1315 838 1294L856 1235Q858
1231 858 1225Z" />
<glyph unicode="+" glyph-name="plus" horiz-adv-x="1239" d="M1085 760Q1085 727 1044 727H692V377Q692 336 659 336H578Q545 336 545 377V727H195Q154 727 154 760V842Q154 874 195 874H545V1227Q545 1268 578 1268H659Q692 1268 692 1227V874H1044Q1085 874
1085 842V760Z" />
<glyph unicode="," glyph-name="comma" horiz-adv-x="438" d="M346 242Q346 237 342 225L188 -162Q179 -185 172 -193T150 -201H66Q41 -201 41 -176Q41 -166 43 -162L160 225Q172 264 201 264H319Q346 264 346 242Z" />
<glyph unicode="-" glyph-name="hyphen" horiz-adv-x="682" d="M584 559Q584 543 573 534T545 524H137Q98 524 98 559V639Q98 654 109 665T137 676H545Q563 676 573 667T584 639V559Z" />
<glyph unicode="." glyph-name="period" horiz-adv-x="438" d="M307 43Q307 25 296 14T268 2H170Q155 2 143 14T131 43V233Q131 249 142 260T170 272H268Q284 272 295 262T307 233V43Z" />
<glyph unicode="/" glyph-name="slash" horiz-adv-x="727" d="M682 1493Q682 1485 680 1481L217 41Q205 0 180 0H76Q63 0 55 9T47 29Q47 37 49 41L514 1481Q526 1522 549 1522H653Q666 1522 674 1514T682 1493Z" />
<glyph unicode="0" glyph-name="zero" horiz-adv-x="1239" d="M1122 623Q1122 293 993 140T621 -14Q504 -14 412 22T254 135T153 334T117 623V899Q117 1228 248 1382T621 1536Q863 1536 992 1383T1122 899V623ZM936 623V899Q936 1065 899 1172T790 1329T621 1378Q523
1378 452 1329T343 1173T305 899V623Q305 456 342 349T451 192T621 143Q719 143 790 192T898 348T936 623Z" />
<glyph unicode="1" glyph-name="one" horiz-adv-x="1239" d="M764 41Q764 23 754 12T727 0H614Q598 0 588 12T578 41V1329L313 1214Q298 1208 287 1208Q268 1208 268 1231V1335Q268 1351 289 1362L598 1509Q621 1522 641 1522H725Q741 1522 752 1511T764 1483V41Z" />
<glyph unicode="2" glyph-name="two" horiz-adv-x="1239" d="M1077 1169Q1077 1049 1018 962T811 774L614 641Q503 566 441 501T353 366T328 205V162H1018Q1035 162 1047 153T1059 127V37Q1059 20 1047 10T1018 0H205Q187 0 176 11T164 39V205Q164 286 182 360T237
499T333 625T477 743L684 883Q814 970 854 1024T895 1169Q895 1282 824 1331T588 1380Q441 1380 225 1350H217Q184 1350 184 1386V1458Q184 1487 223 1495Q382 1536 588 1536Q837 1536 957 1447T1077 1169Z" />
<glyph unicode="3" glyph-name="three" horiz-adv-x="1239" d="M1067 424Q1067 276 1003 178T826 33T557 -14Q386 -14 211 27Q172 34 172 66V135Q172 170 207 170H213Q436 141 557 141Q724 141 800 208T877 424V467Q877 527 855 583T778 678T637 717H264Q248 717
237 726T225 754V825Q225 842 236 853T264 864H637Q729 864 782 900T856 991T877 1108V1137Q877 1265 803 1322T557 1380Q517 1380 452 1376T331 1364T213 1350H207Q172 1350 172 1384V1456Q172 1469 183 1480T211 1495Q402 1536 557 1536Q716 1536 829 1498T1005
1371T1067 1137V1108Q1067 1055 1055 1009T1017 921T955 845T872 788Q974 739 1020 653T1067 467V424Z" />
<glyph unicode="4" glyph-name="four" horiz-adv-x="1239" d="M1161 442Q1161 406 1122 406H944V41Q944 24 935 12T909 0H791Q756 0 756 41V406H164Q117 406 99 424T80 485V563Q80 606 104 639L711 1489Q732 1522 770 1522H891Q944 1522 944 1477V561H1122Q1139
561 1150 552T1161 524V442ZM758 561V1262Q758 1274 750 1274H748Q739 1274 731 1262L258 590Q252 581 252 573Q252 561 268 561H758Z" />
<glyph unicode="5" glyph-name="five" horiz-adv-x="1239" d="M1081 463Q1081 313 1020 206T842 42T559 -14Q350 -14 199 23Q160 33 160 63V139Q160 170 190 170H201Q364 141 559 141Q893 141 893 463V494Q893 645 795 706T465 768H219Q206 768 196 779T186 803V805L244
1487Q246 1502 258 1512T285 1522H989Q1008 1522 1019 1513T1030 1487V1397Q1030 1364 989 1364H401L369 922H465Q665 922 800 882T1008 747T1081 494V463Z" />
<glyph unicode="6" glyph-name="six" horiz-adv-x="1239" d="M1118 504Q1118 340 1063 224T896 47T618 -14Q502 -14 411 21T255 129T157 311T123 567V926Q123 1143 182 1277T361 1474T657 1536Q855 1536 1010 1501Q1034 1495 1045 1487T1057 1462V1382Q1057 1346
1020 1346Q1017 1347 1015 1347T1008 1348Q840 1380 657 1380Q509 1380 432 1325T331 1175T307 926V903Q488 944 616 944Q759 944 871 904T1051 769T1118 516V504ZM934 504V516Q934 620 891 683T776 772T616 799Q546 799 456 788T307 762V567Q307 403 342 309T446
176T618 137Q718 137 788 172T896 289T934 504Z" />
<glyph unicode="7" glyph-name="seven" horiz-adv-x="1239" d="M1092 1393Q1092 1345 1065 1286L475 31Q460 0 430 0H307Q276 0 276 31Q276 39 283 53L901 1339Q903 1341 903 1348Q903 1362 889 1362H190Q150 1362 150 1397V1483Q150 1498 162 1510T190 1522H938Q1019
1522 1055 1486T1092 1393Z" />
<glyph unicode="8" glyph-name="eight" horiz-adv-x="1239" d="M1128 424Q1128 281 1062 182T884 34T631 -14H610Q470 -14 358 34T179 181T113 424V463Q113 562 165 652T311 795Q246 828 203 876T139 985T117 1114V1133Q117 1271 180 1360T354 1493T610 1536H631Q777
1536 887 1493T1060 1361T1124 1133V1114Q1124 1046 1103 986T1038 877T930 795Q1023 743 1075 653T1128 463V424ZM944 1114V1133Q944 1255 864 1319T631 1384H610Q459 1384 378 1319T297 1133V1114Q297 1009 361 939T557 868H684Q815 868 879 938T944 1114ZM942
424V463Q942 525 916 584T831 682T684 721H557Q491 721 441 699T360 638T314 553T299 463V424Q299 290 379 216T610 141H631Q780 141 861 215T942 424Z" />
<glyph unicode="9" glyph-name="nine" horiz-adv-x="1239" d="M1100 596Q1100 431 1066 316T965 128T798 21T565 -14Q455 -14 367 -4T213 20Q164 33 164 59V139Q164 176 201 176Q205 176 207 176T213 174Q385 141 563 141Q713 141 790 196T891 347T915 596V618Q857
606 811 598T717 584T606 578Q498 578 410 599T252 670T142 804T102 1006V1018Q102 1137 133 1234T227 1398T384 1501T602 1536Q720 1536 811 1502T967 1396T1066 1213T1100 954V596ZM913 760L915 954Q915 1195 839 1289T604 1384Q504 1384 434 1349T325 1233T287
1018V1006Q287 852 376 788T604 723Q668 723 758 733T913 760Z" />
<glyph unicode=":" glyph-name="colon" horiz-adv-x="449" d="M313 895Q313 878 302 867T272 856H176Q161 856 148 867T135 895V1085Q135 1101 147 1113T176 1126H272Q290 1126 301 1115T313 1085V895ZM313 39Q313 22 302 11T272 0H176Q161 0 148 11T135 39V231Q135
246 147 258T176 270H272Q289 270 301 259T313 231V39Z" />
<glyph unicode=";" glyph-name="semicolon" horiz-adv-x="449" d="M313 895Q313 878 302 867T274 856H174Q158 856 147 867T135 895V1085Q135 1102 146 1114T174 1126H274Q291 1126 302 1115T313 1085V895ZM322 240Q322 238 317 223L164 -164Q155 -187 148 -196T125
-205H43Q18 -205 18 -178Q18 -168 20 -164L137 223Q149 262 178 262H295Q322 262 322 240Z" />
<glyph unicode="&lt;" glyph-name="less" horiz-adv-x="1239" d="M987 307Q987 287 963 287H844Q813 287 780 313L287 731Q250 762 250 801Q250 840 287 870L780 1288Q812 1315 844 1315H963Q987 1315 987 1294Q987 1277 967 1260L430 801L967 342Q987 325 987 307Z" />
<glyph unicode="=" glyph-name="equal" horiz-adv-x="1239" d="M1055 987Q1055 972 1043 963T1014 954H225Q209 954 197 963T184 987V1069Q184 1102 225 1102H1014Q1055 1102 1055 1069V987ZM1055 535Q1055 502 1014 502H225Q184 502 184 535V616Q184 649 225
649H1014Q1055 649 1055 616V535Z" />
<glyph unicode="&gt;" glyph-name="greater" horiz-adv-x="1239" d="M989 801Q989 762 952 731L459 313Q427 287 395 287H276Q252 287 252 307Q252 325 272 342L809 801L272 1260Q252 1277 252 1294Q252 1315 276 1315H395Q427 1315 459 1288L952 870Q989 840 989 801Z" />
<glyph unicode="?" glyph-name="question" horiz-adv-x="913" d="M791 1202Q791 1152 776 1105T721 999T604 852L512 748Q446 673 425 636T403 537V436Q403 419 392 408T362 397H272Q256 397 245 408T233 436V537Q233 636 261 697T369 846L463 950Q539 1035 564
1086T590 1202V1227Q590 1307 540 1340T381 1374Q271 1374 104 1356H98Q68 1356 68 1391V1462Q68 1483 74 1494T102 1509Q235 1536 381 1536Q573 1536 682 1465T791 1227V1202ZM406 39Q406 22 395 11T367 0H268Q253 0 240 11T227 39V229Q227 245 239 257T268 270H367Q384
270 395 258T406 229V39Z" />
<glyph unicode="@" glyph-name="at" horiz-adv-x="1571" d="M1491 750Q1491 621 1470 526T1406 361T1298 242Q1207 173 1069 142T745 111Q592 111 504 186T416 395Q416 420 418 432L440 672Q457 830 552 913T813 997Q929 997 1075 967Q1096 963 1107 953T1118
924V915L1057 274Q1178 291 1244 353T1333 513T1356 750Q1356 850 1325 935T1230 1086T1072 1188T852 1225Q588 1225 431 1085T250 705L219 393Q215 349 215 328Q215 237 247 157T343 17T505 -76T731 -109Q842 -109 1026 -94H1028Q1039 -94 1043 -99T1047 -109V-174Q1047
-200 1014 -203Q873 -219 729 -219Q586 -219 465 -180T259 -67T129 108T84 330Q84 373 86 393L117 713Q135 900 228 1042T483 1263T858 1343Q1012 1343 1130 1296T1330 1164T1451 974T1491 750ZM936 838Q850 850 797 850Q708 850 665 807T610 668L588 434Q586 422
586 399Q586 328 627 293T754 258H797Q856 258 885 262L936 838Z" />
<glyph unicode="A" glyph-name="A" horiz-adv-x="1296" d="M1237 33Q1237 0 1202 0H1081Q1054 0 1047 31L913 502H383L252 31Q249 18 237 9T215 0H94Q80 0 70 9T59 33Q59 43 61 47L440 1380Q465 1467 523 1501T649 1536Q693 1536 733 1523T806 1475T856 1382L1235
47Q1237 43 1237 33ZM874 664L688 1337Q678 1374 649 1374Q618 1374 608 1337L422 664H874Z" />
<glyph unicode="B" glyph-name="B" horiz-adv-x="1262" d="M1159 420Q1159 -14 561 -14Q344 -14 227 4Q191 9 176 25T160 80V1444Q160 1514 225 1520Q361 1536 551 1536Q729 1536 861 1500T1072 1377T1151 1141V1108Q1151 995 1093 911T932 786Q1037 751 1098
663T1159 455V420ZM965 1108V1141Q965 1278 862 1328T551 1378Q504 1378 489 1378T430 1376T348 1372V864H664Q965 864 965 1108ZM973 420V455Q973 571 903 643T664 715H348V152Q380 151 452 147T561 143Q697 143 786 167T924 251T973 420Z" />
<glyph unicode="C" glyph-name="C" horiz-adv-x="1116" d="M1044 53Q1044 19 1004 12Q864 -14 664 -14Q564 -14 468 18T294 121T170 316T123 618V903Q123 1137 201 1279T401 1478T664 1536Q810 1536 1008 1503Q1040 1499 1040 1477V1372Q1040 1350 1016 1350H1010Q788
1368 666 1368Q501 1368 405 1259T309 903V618Q309 374 405 264T666 154Q807 154 1004 170H1012Q1044 170 1044 137V53Z" />
<glyph unicode="D" glyph-name="D" horiz-adv-x="1313" d="M1196 623Q1196 302 1032 144T575 -14Q497 -14 415 -11T289 -4T203 6Q160 12 160 57V1464Q160 1508 203 1516Q246 1522 289 1525T414 1532T575 1536Q770 1536 908 1468T1121 1257T1196 899V623ZM1010
623V899Q1010 1076 955 1182T803 1332T575 1376Q450 1376 348 1370V150Q414 145 575 145Q779 145 894 254T1010 623Z" />
<glyph unicode="E" glyph-name="E" horiz-adv-x="1128" d="M1016 25Q1016 -1 995 -4Q899 -14 596 -14Q377 -14 269 76T160 367V1155Q160 1355 268 1445T596 1536Q684 1536 741 1535T880 1531T995 1524Q1005 1523 1010 1515T1016 1495V1393Q1016 1368 993 1368H598Q490
1368 436 1348T364 1283T346 1155V870H975Q992 870 1004 858T1016 829V752Q1016 735 1003 723T975 711H346V367Q346 284 364 240T436 175T598 154H993Q1016 154 1016 129V25Z" />
<glyph unicode="F" glyph-name="F" horiz-adv-x="1128" d="M1016 752Q1016 735 1003 723T975 711H346V41Q346 23 334 12T305 0H201Q184 0 172 12T160 41V1155Q160 1355 268 1445T596 1536Q684 1536 741 1535T880 1531T995 1524Q1005 1523 1010 1515T1016 1495V1393Q1016
1368 993 1368H598Q490 1368 436 1348T364 1283T346 1155V870H975Q992 870 1004 858T1016 829V752Z" />
<glyph unicode="G" glyph-name="G" horiz-adv-x="1253" d="M1094 61Q1094 45 1083 32T1057 16Q977 3 874 -5T649 -14Q513 -14 392 50T195 258T119 623V897Q119 1076 166 1201T291 1400T466 1504T668 1536Q883 1536 1057 1507Q1092 1503 1092 1477V1374Q1092 1354
1065 1354H1057Q888 1368 668 1368Q563 1368 483 1325T354 1177T305 897V623Q305 461 350 356T473 201T649 152Q760 152 907 164V750Q907 766 918 778T944 791H1055Q1070 791 1082 778T1094 750V61Z" />
<glyph unicode="H" glyph-name="H" horiz-adv-x="1393" d="M1233 41Q1233 24 1220 12T1192 0H1087Q1071 0 1059 12T1047 41V721H346V41Q346 23 334 12T305 0H201Q184 0 172 12T160 41V1481Q160 1496 172 1509T201 1522H305Q322 1522 334 1510T346 1481V887H1047V1481Q1047
1496 1059 1509T1087 1522H1192Q1207 1522 1220 1509T1233 1481V41Z" />
<glyph unicode="I" glyph-name="I" horiz-adv-x="547" d="M367 41Q367 25 357 13T330 0H217Q203 0 192 11T180 41V1483Q180 1498 191 1510T217 1522H330Q345 1522 356 1511T367 1483V41Z" />
<glyph unicode="J" glyph-name="J" horiz-adv-x="526" d="M367 -76Q367 -150 349 -204T292 -295T194 -351T49 -369Q23 -369 -13 -363T-59 -352Q-72 -346 -72 -330V-254Q-72 -238 -60 -229T-31 -219H49Q127 -219 153 -188T180 -76V1483Q180 1498 192 1510T219 1522H328Q343
1522 355 1510T367 1483V-76Z" />
<glyph unicode="K" glyph-name="K" horiz-adv-x="1243" d="M1155 20Q1155 0 1128 0H969Q941 0 924 20L346 723V41Q346 23 336 12T309 0H197Q181 0 171 11T160 41V1483Q160 1499 171 1510T199 1522H307Q323 1522 334 1512T346 1483V821L936 1503Q954 1522 977 1522H1124Q1153
1522 1153 1499Q1153 1487 1145 1479L528 782L1145 45Q1155 35 1155 20Z" />
<glyph unicode="L" glyph-name="L" horiz-adv-x="1053" d="M1016 33Q1016 7 995 4Q959 -2 835 -8T596 -14Q469 -14 374 13T220 124T160 367V1481Q160 1496 172 1509T201 1522H305Q322 1522 334 1510T346 1481V367Q346 284 364 240T436 175T598 154H993Q1016 154
1016 129V33Z" />
<glyph unicode="M" glyph-name="M" horiz-adv-x="1559" d="M1401 41Q1401 24 1388 12T1360 0H1260Q1243 0 1231 12T1219 41V1255Q1219 1262 1217 1262Q1214 1262 1212 1257L920 651Q904 620 884 606T827 592H733Q698 592 679 605T641 651L348 1257Q346 1262 344
1262Q342 1262 342 1255V41Q342 23 330 12T301 0H201Q184 0 172 12T160 41V1462Q160 1487 177 1504T219 1522H352Q402 1522 418 1487L756 784Q766 762 780 762Q795 762 805 784L1143 1487Q1159 1522 1208 1522H1341Q1357 1522 1371 1514T1393 1492T1401 1462V41Z"
/>
<glyph unicode="N" glyph-name="N" horiz-adv-x="1393" d="M1233 59Q1233 35 1216 18T1174 0H1047Q997 0 981 33L348 1235Q345 1241 342 1241Q340 1241 340 1235V39Q340 23 330 12T303 0H197Q160 0 160 25V1464Q160 1488 177 1505T219 1522H332Q371 1522 387 1514T416
1481L1044 285L1049 279Q1051 279 1051 285V1483Q1051 1499 1061 1510T1087 1522H1196Q1213 1522 1223 1511T1233 1483V59Z" />
<glyph unicode="O" glyph-name="O" horiz-adv-x="1354" d="M1231 629Q1231 462 1191 340T1077 139T902 23T678 -14Q557 -14 455 23T278 139T163 342T123 629V893Q123 1057 163 1180T278 1382T454 1499T678 1536Q801 1536 901 1499T1076 1384T1190 1183T1231 893V629ZM1042
629V893Q1042 1018 1017 1111T945 1259T833 1341T678 1368Q311 1368 311 893V629Q311 463 355 357T480 202T678 154Q1042 154 1042 629Z" />
<glyph unicode="P" glyph-name="P" horiz-adv-x="1214" d="M1122 1065Q1122 606 549 606Q477 606 344 616V41Q344 23 334 12T307 0H197Q181 0 171 11T160 41V1468Q160 1514 209 1520Q350 1536 549 1536Q1122 1536 1122 1092V1065ZM936 1065V1092Q936 1245 844
1311T549 1378Q442 1378 344 1370V770Q355 770 380 769T435 766T497 764T549 762Q757 762 846 833T936 1065Z" />
<glyph unicode="Q" glyph-name="Q" horiz-adv-x="1354" d="M1231 629Q1231 429 1173 292T1011 81T766 -10V-98Q766 -173 789 -195T893 -217H1014Q1059 -217 1059 -250V-319Q1059 -369 893 -369Q787 -369 721 -346T620 -263T586 -100V-8Q446 10 342 84T180 294T123
629V893Q123 1057 163 1180T278 1382T454 1499T678 1536Q801 1536 901 1499T1076 1384T1190 1183T1231 893V629ZM1042 629V893Q1042 1018 1017 1111T945 1259T833 1341T678 1368Q311 1368 311 893V629Q311 463 355 357T480 202T678 154Q1042 154 1042 629Z" />
<glyph unicode="R" glyph-name="R" horiz-adv-x="1280" d="M1200 27Q1200 0 1174 0H1042Q1021 0 1012 4T989 27L623 637H604H569Q508 637 344 643V41Q344 23 334 12T307 0H197Q181 0 171 11T160 41V1475Q160 1515 209 1520Q270 1527 366 1531T569 1536Q740 1536
868 1494T1069 1352T1143 1096V1081Q1143 917 1056 812T821 668L1194 45Q1200 36 1200 27ZM958 1081V1096Q958 1195 915 1255T787 1342T569 1368Q393 1368 344 1362V801Q524 797 569 797Q701 797 785 822T914 910T958 1081Z" />
<glyph unicode="S" glyph-name="S" horiz-adv-x="1126" d="M1024 395Q1024 221 910 104T518 -14Q358 -14 178 14Q154 18 147 25T139 51V133Q139 166 174 166H180Q321 154 518 154Q691 154 760 215T829 395Q829 471 778 527T584 670L385 791Q237 881 170 968T102
1174Q102 1355 228 1445T592 1536Q661 1536 726 1533T842 1525T948 1511Q983 1504 983 1477V1389Q983 1356 948 1356H944Q764 1368 592 1368Q429 1368 360 1326T291 1174Q291 1105 340 1053T514 926L702 813Q819 743 890 679T992 546T1024 395Z" />
<glyph unicode="T" glyph-name="T" horiz-adv-x="1208" d="M1137 1395Q1137 1362 1098 1362H698V41Q698 23 688 12T662 0H549Q533 0 523 11T512 41V1362H113Q72 1362 72 1395V1485Q72 1499 83 1510T113 1522H1098Q1114 1522 1125 1512T1137 1485V1395Z" />
<glyph unicode="U" glyph-name="U" horiz-adv-x="1356" d="M1202 553Q1202 408 1168 301T1065 124T900 20T678 -14Q552 -14 457 19T293 123T190 301T154 553V1483Q154 1499 165 1510T193 1522H303Q319 1522 330 1512T342 1483V553Q342 347 418 246T678 145Q802
145 876 191T982 326T1014 553V1483Q1014 1499 1025 1510T1053 1522H1163Q1179 1522 1190 1512T1202 1483V553Z" />
<glyph unicode="V" glyph-name="V" horiz-adv-x="1317" d="M1247 1487Q1247 1479 1245 1475L868 141Q844 54 787 20T659 -14Q494 -14 451 141L72 1475Q70 1479 70 1487Q70 1503 80 1512T106 1522H225Q238 1522 248 1513T262 1491L618 186Q632 143 659 143Q686
143 698 186L1057 1491Q1065 1522 1092 1522H1212Q1247 1522 1247 1487Z" />
<glyph unicode="W" glyph-name="W" horiz-adv-x="1690" d="M1620 1487V1481L1393 96Q1383 37 1352 15T1266 -8H1178Q1135 -8 1104 20T1061 94L860 852Q856 870 848 870H846H844Q836 870 831 852L629 94Q617 48 586 20T512 -8H426Q372 -8 341 14T299 96L72 1481V1487Q72
1522 106 1522H225Q254 1522 260 1487L459 182Q461 171 463 162T469 152Q476 152 483 182L684 940Q705 1022 780 1022H911Q986 1022 1008 940L1208 182Q1215 152 1223 152Q1228 152 1230 161T1233 182L1432 1487Q1438 1522 1466 1522H1585Q1620 1522 1620 1487Z"
/>
<glyph unicode="X" glyph-name="X" horiz-adv-x="1323" d="M1237 29Q1237 0 1204 0H1075Q1060 0 1054 5T1032 31L657 627L291 31Q271 0 248 0H127Q94 0 94 31Q94 42 100 51L555 774L104 1473Q98 1482 98 1493Q98 1522 129 1522H262Q288 1522 299 1501L668 918L1024
1501Q1037 1522 1063 1522H1184Q1198 1522 1207 1514T1217 1491Q1217 1484 1210 1473L770 770L1231 51Q1237 42 1237 29Z" />
<glyph unicode="Y" glyph-name="Y" horiz-adv-x="1194" d="M1124 1493Q1124 1484 1118 1470L801 758Q752 650 690 623V41Q690 24 680 12T653 0H541Q525 0 515 12T504 41V623Q444 646 393 758L78 1470Q72 1484 72 1493Q72 1505 81 1513T106 1522H231Q240 1522 251
1513T268 1493L551 829Q574 776 598 776Q622 776 645 829L930 1493Q942 1522 965 1522H1090Q1106 1522 1115 1514T1124 1493Z" />
<glyph unicode="Z" glyph-name="Z" horiz-adv-x="1223" d="M1114 37Q1114 20 1103 10T1073 0H285Q187 0 151 29T115 139Q115 212 145 258L879 1325Q885 1334 885 1341Q885 1356 864 1356H184Q168 1356 156 1365T143 1391V1487Q143 1502 155 1512T184 1522H913Q1005
1522 1046 1495T1087 1386Q1087 1359 1078 1323T1055 1266L324 199Q317 191 317 180Q317 168 338 168H1073Q1114 168 1114 133V37Z" />
<glyph unicode="[" glyph-name="bracketleft" horiz-adv-x="670" d="M621 -356Q621 -373 608 -385T580 -397H199Q184 -397 174 -385T164 -358V1483Q164 1498 174 1510T199 1522H580Q595 1522 608 1509T621 1481V1413Q621 1398 608 1385T580 1372H346V-248H580Q597
-248 609 -260T621 -289V-356Z" />
<glyph unicode="\" glyph-name="backslash" horiz-adv-x="727" d="M682 29Q682 16 674 8T653 0H549Q524 0 512 41L49 1481Q47 1485 47 1493Q47 1503 55 1512T76 1522H180Q203 1522 215 1481L680 41Q682 37 682 29Z" />
<glyph unicode="]" glyph-name="bracketright" horiz-adv-x="670" d="M506 -358Q506 -375 496 -386T471 -397H90Q75 -397 62 -385T49 -356V-289Q49 -272 61 -260T90 -248H324V1372H90Q75 1372 62 1385T49 1413V1481Q49 1496 62 1509T90 1522H471Q486 1522 496
1511T506 1483V-358Z" />
<glyph unicode="^" glyph-name="asciicircum" horiz-adv-x="1239" d="M1034 1171Q1034 1153 1012 1153H889Q869 1153 863 1158T831 1190L621 1436L410 1190Q391 1167 382 1160T352 1153H229Q207 1153 207 1171Q207 1183 215 1194L451 1499Q468 1522 479 1529T512
1536H729Q750 1536 762 1529T791 1499L1026 1194Q1034 1183 1034 1171Z" />
<glyph unicode="_" glyph-name="underscore" horiz-adv-x="1012" d="M1075 -184Q1075 -217 1034 -217H-20Q-61 -217 -61 -184V-133Q-61 -118 -50 -109T-20 -100H1034Q1052 -100 1063 -108T1075 -133V-184Z" />
<glyph unicode="`" glyph-name="grave" horiz-adv-x="762" d="M498 1290Q498 1276 479 1276H369Q354 1276 347 1281T322 1307L90 1565Q82 1573 82 1581Q82 1595 104 1595H240Q257 1595 266 1590T291 1565L489 1311Q498 1303 498 1290Z" />
<glyph unicode="a" glyph-name="a" horiz-adv-x="1063" d="M924 41Q924 24 911 12T883 0H788Q772 0 760 12T748 41V86Q697 57 646 34T540 -1T432 -14Q286 -14 192 62T98 317V342Q98 427 125 489T208 592T360 653T592 674H743V756Q743 885 694 936T524 987Q375
987 211 971H201Q164 971 164 1004V1075Q164 1108 207 1114Q369 1141 524 1141Q924 1141 924 756V41ZM743 215V545H592Q411 545 345 501T279 344V319Q279 248 300 207T362 150T467 133Q537 133 599 152T743 215Z" />
<glyph unicode="b" glyph-name="b" horiz-adv-x="1108" d="M1006 492Q1006 335 958 222T809 48T559 -14Q362 -14 182 20Q154 26 147 35T139 68V1501Q139 1516 149 1528T176 1540H281Q297 1540 308 1529T319 1501V1120Q428 1141 559 1141Q672 1141 755 1108T895
1011T978 855T1006 639V492ZM825 492V639Q825 813 765 898T559 983Q485 983 427 981T319 969V156Q471 143 559 143Q656 143 715 182T800 298T825 492Z" />
<glyph unicode="c" glyph-name="c" horiz-adv-x="926" d="M836 53Q836 16 795 8Q670 -14 539 -14Q404 -14 304 47T153 220T102 483V643Q102 793 152 905T302 1079T539 1141Q665 1141 795 1118Q819 1114 827 1105T836 1073V999Q836 969 801 969H793Q666 983 539
983Q283 983 283 643V483Q283 314 348 229T539 143Q669 143 793 158H801Q836 158 836 127V53Z" />
<glyph unicode="d" glyph-name="d" horiz-adv-x="1108" d="M969 68Q969 45 961 35T926 20Q746 -14 549 -14Q400 -14 300 47T151 223T102 492V639Q102 762 129 854T213 1011T353 1108T549 1141Q611 1141 673 1136T788 1120V1501Q788 1517 799 1528T827 1540H932Q947
1540 958 1529T969 1501V68ZM788 156V969Q741 978 683 980T549 983Q453 983 393 944T308 829T283 639V492Q283 316 343 230T549 143Q639 143 788 156Z" />
<glyph unicode="e" glyph-name="e" horiz-adv-x="1114" d="M1008 551Q1008 506 969 506H283V477Q283 299 352 221T567 143Q662 143 760 149T932 166H942Q975 166 975 137V68Q975 47 967 37T934 20Q851 4 761 -5T567 -14Q438 -14 334 32T166 187T102 477V662Q102
884 221 1012T557 1141Q702 1141 804 1082T957 915T1008 662V551ZM825 643V662Q825 775 796 847T707 951T557 983Q283 983 283 662V643H825Z" />
<glyph unicode="f" glyph-name="f" horiz-adv-x="780" d="M729 1446Q729 1415 692 1415H594Q544 1415 518 1403T481 1361T469 1274V1126H684Q700 1126 711 1116T723 1090V1010Q723 975 684 975H469V41Q469 24 458 12T430 0H330Q312 0 301 12T289 41V975L90 997Q72
999 62 1008T51 1034V1090Q51 1105 62 1115T90 1126H289V1274Q289 1380 322 1443T418 1532T575 1559Q634 1559 690 1546Q729 1536 729 1513V1446Z" />
<glyph unicode="g" glyph-name="g" horiz-adv-x="1145" d="M1071 1028Q1071 995 1034 989L961 975Q1030 900 1030 764V748Q1030 397 575 397Q439 397 338 438Q287 415 287 369Q287 342 301 327T350 303L655 225Q779 193 861 161T996 72T1049 -76V-92Q1049 -246
938 -328T582 -410Q344 -410 228 -325T111 -84V-66Q111 17 147 84T240 195L225 201Q178 221 155 265T131 360V362Q131 406 153 446T215 510Q121 598 121 748V764Q121 921 226 1023T575 1126H1024Q1042 1126 1056 1114T1071 1081V1028ZM852 748V764Q852 866 791
924T575 983Q419 983 359 924T299 764V748Q299 660 359 600T575 539Q729 539 790 593T852 748ZM868 -92V-76Q868 -18 815 15T618 84L387 143Q338 101 313 55T287 -66V-84Q287 -146 314 -186T407 -248T582 -270Q748 -270 808 -227T868 -92Z" />
<glyph unicode="h" glyph-name="h" horiz-adv-x="1141" d="M1001 41Q1001 23 989 12T961 0H862Q847 0 834 12T821 41V715Q821 863 765 923T602 983Q546 983 463 969T319 926V41Q319 24 308 12T279 0H178Q163 0 151 12T139 41V1499Q139 1517 150 1528T178 1540H281Q299
1540 309 1529T319 1499V1077Q392 1109 476 1125T633 1141Q744 1141 826 1097T955 956T1001 715V41Z" />
<glyph unicode="i" glyph-name="i" horiz-adv-x="506" d="M346 1348Q346 1330 334 1319T305 1307H201Q184 1307 172 1319T160 1348V1511Q160 1528 171 1540T201 1552H305Q324 1552 335 1541T346 1511V1348ZM342 41Q342 23 330 12T301 0H203Q186 0 174 12T162 41V1085Q162
1102 173 1114T203 1126H301Q320 1126 331 1115T342 1085V41Z" />
<glyph unicode="j" glyph-name="j" horiz-adv-x="506" d="M346 1346Q346 1329 335 1318T305 1307H201Q184 1307 172 1318T160 1346V1511Q160 1527 171 1539T201 1552H305Q323 1552 334 1541T346 1511V1346ZM342 -131Q342 -283 279 -343T86 -403Q30 -403 -25 -395Q-61
-389 -61 -362V-287Q-61 -258 -18 -258H66Q125 -258 143 -233T162 -131V1085Q162 1101 172 1113T199 1126H305Q323 1126 332 1115T342 1085V-131Z" />
<glyph unicode="k" glyph-name="k" horiz-adv-x="1016" d="M944 27Q944 0 922 0H774Q759 0 750 5T727 27L319 530V41Q319 23 307 12T279 0H180Q165 0 152 12T139 41V1499Q139 1516 151 1528T180 1540H279Q297 1540 308 1529T319 1499V647L729 1108Q744 1126 770
1126H913Q944 1126 944 1104Q944 1091 934 1081L483 594L938 45Q944 39 944 27Z" />
<glyph unicode="l" glyph-name="l" horiz-adv-x="500" d="M340 41Q340 23 330 12T303 0H197Q181 0 171 11T160 41V1501Q160 1516 169 1528T197 1540H303Q320 1540 330 1529T340 1501V41Z" />
<glyph unicode="m" glyph-name="m" horiz-adv-x="1634" d="M1495 41Q1495 23 1483 12T1454 0H1356Q1339 0 1327 12T1315 41V766Q1315 887 1266 936T1128 985Q1031 985 889 930Q907 863 907 770V41Q907 23 897 12T870 0H762Q747 0 737 12T727 41V770Q727 856 710
903T660 967T569 985Q481 985 319 905V41Q319 23 309 12T283 0H174Q159 0 149 12T139 41V1085Q139 1103 150 1114T178 1126H281Q299 1126 309 1115T319 1085V1047Q473 1143 618 1143Q750 1143 823 1059Q1002 1143 1163 1143Q1262 1143 1335 1107T1452 987T1495
766V41Z" />
<glyph unicode="n" glyph-name="n" horiz-adv-x="1141" d="M1001 41Q1001 23 989 12T961 0H862Q847 0 834 12T821 41V715Q821 816 798 875T726 960T596 985Q481 985 319 905V41Q319 24 308 12T279 0H178Q163 0 151 12T139 41V1085Q139 1103 150 1114T178 1126H281Q299
1126 309 1115T319 1085V1047Q405 1095 482 1118T645 1141Q827 1141 914 1033T1001 715V41Z" />
<glyph unicode="o" glyph-name="o" horiz-adv-x="1116" d="M1014 485Q1014 333 962 221T807 48T557 -14Q337 -14 220 120T102 485V641Q102 872 219 1006T557 1141Q671 1141 755 1106T898 1006T985 847T1014 641V485ZM834 485V641Q834 803 766 893T557 983Q419
983 351 894T283 641V485Q283 143 557 143Q697 143 765 232T834 485Z" />
<glyph unicode="p" glyph-name="p" horiz-adv-x="1108" d="M1006 487Q1006 244 893 115T559 -14Q445 -14 319 8V-362Q319 -378 309 -389T281 -401H176Q161 -401 150 -390T139 -362V1047Q139 1068 148 1078T182 1094Q234 1107 301 1118T432 1135T559 1141Q708 1141
808 1080T957 904T1006 635V487ZM825 487V635Q825 807 764 898T559 989Q435 989 319 969V158Q429 137 559 137Q703 137 764 225T825 487Z" />
<glyph unicode="q" glyph-name="q" horiz-adv-x="1108" d="M969 -362Q969 -377 958 -389T932 -401H827Q811 -401 800 -390T788 -362V8Q667 -14 549 -14Q329 -14 216 115T102 487V635Q102 751 129 844T211 1004T350 1106T549 1141Q611 1141 675 1135T807 1118T926
1094Q952 1089 960 1080T969 1047V-362ZM788 158V969Q744 976 720 979T644 985T549 989Q403 989 343 899T283 635V487Q283 402 297 337T342 229T423 161T549 137Q603 137 666 142T788 158Z" />
<glyph unicode="r" glyph-name="r" horiz-adv-x="700" d="M645 1020Q645 985 602 985Q462 985 319 899V41Q319 24 308 12T279 0H178Q163 0 151 12T139 41V1085Q139 1103 150 1114T178 1126H274Q292 1126 302 1115T313 1085V1042Q455 1141 602 1141Q645 1141 645
1104V1020Z" />
<glyph unicode="s" glyph-name="s" horiz-adv-x="954" d="M852 283Q852 131 750 59T469 -14Q271 -14 145 16Q102 28 102 57V129Q102 143 113 151T139 160H147Q322 137 469 137Q572 137 622 169T672 283Q672 329 639 365T518 453L311 575Q208 638 155 707T102 868Q102
1018 200 1079T473 1141Q629 1141 793 1114Q831 1108 831 1073V1006Q831 971 797 971H791Q599 987 473 987Q374 987 329 964T283 868Q283 826 315 793T424 713L627 592Q751 519 801 447T852 283Z" />
<glyph unicode="t" glyph-name="t" horiz-adv-x="788" d="M737 31Q737 1 700 -4Q632 -14 567 -14Q417 -14 353 42T289 260V975L90 997Q51 1001 51 1034V1090Q51 1107 61 1116T90 1126H289V1327Q289 1362 326 1368L432 1384H438Q451 1384 460 1375T469 1350V1126H690Q709
1126 720 1115T731 1085V1016Q731 998 719 987T690 975H469V260Q469 178 492 155T580 131H694Q737 131 737 102V31Z" />
<glyph unicode="u" glyph-name="u" horiz-adv-x="1141" d="M1001 41Q1001 23 991 12T963 0H860Q844 0 833 11T821 41V80Q737 32 659 9T496 -14Q139 -14 139 412V1085Q139 1102 151 1114T180 1126H279Q297 1126 308 1115T319 1085V412Q319 310 343 250T416 166T545
141Q661 141 821 221V1085Q821 1101 833 1113T862 1126H963Q980 1126 990 1115T1001 1085V41Z" />
<glyph unicode="v" glyph-name="v" horiz-adv-x="1085" d="M1006 1092Q1006 1083 1004 1077L727 102Q709 37 662 12T543 -14Q471 -14 425 11T358 102L82 1077Q80 1083 80 1092Q80 1108 88 1117T113 1126H225Q252 1126 264 1087L500 195Q508 161 518 148T543 135Q558
135 568 148T586 195L821 1087Q833 1126 860 1126H973Q988 1126 997 1117T1006 1092Z" />
<glyph unicode="w" glyph-name="w" horiz-adv-x="1610" d="M1532 1085V1077L1333 127Q1319 59 1304 32T1259 -5T1161 -14Q1105 -14 1076 -4T1029 36T993 133L815 829Q811 844 805 844Q801 844 800 842T795 829L616 133Q593 43 561 15T449 -14Q385 -14 354 -5T306
31T276 127L78 1077V1085Q78 1102 89 1114T117 1126H227Q241 1126 250 1117T262 1094L432 160Q436 135 449 135Q460 135 465 160L666 946Q683 1008 748 1008H862Q927 1008 944 946L1145 160Q1150 135 1161 135Q1174 135 1178 160L1348 1094Q1350 1107 1359 1116T1382
1126H1493Q1510 1126 1521 1114T1532 1085Z" />
<glyph unicode="x" glyph-name="x" horiz-adv-x="1120" d="M1047 23Q1047 0 1020 0H879Q861 0 850 16L557 444L264 20Q255 7 249 4T229 0H106Q82 0 82 20Q82 35 92 47L461 573L113 1075Q102 1091 102 1102Q102 1126 133 1126H266Q289 1126 307 1098L567 713L829
1098Q844 1117 850 1121T872 1126H991Q1018 1126 1018 1102Q1018 1092 1008 1075L664 586L1038 47Q1047 35 1047 23Z" />
<glyph unicode="y" glyph-name="y" horiz-adv-x="1094" d="M1014 1092Q1014 1081 1012 1077L674 -102Q642 -216 599 -282T486 -377T299 -406Q209 -406 127 -387Q84 -377 84 -354V-279Q84 -246 123 -246H129Q264 -258 311 -258Q402 -258 445 -223T514 -84L535 0H506Q451
0 416 26T354 141L82 1077Q80 1081 80 1092Q80 1126 117 1126H229Q256 1126 264 1094L506 205Q517 160 545 160H578L827 1096Q830 1109 841 1117T866 1126H981Q996 1126 1005 1117T1014 1092Z" />
<glyph unicode="z" glyph-name="z" horiz-adv-x="987" d="M885 41Q885 24 872 12T844 0H225Q164 0 132 32T100 113V152Q100 196 110 223T147 285L676 942Q684 954 684 961Q684 975 664 975H166Q149 975 137 987T125 1016V1085Q125 1102 136 1114T166 1126H768Q883
1126 883 1026V977Q883 921 836 864L297 190Q287 180 287 168Q287 152 303 152H844Q859 152 872 139T885 111V41Z" />
<glyph unicode="{" glyph-name="braceleft" horiz-adv-x="678" d="M623 -356Q623 -373 610 -385T582 -397H477Q350 -397 283 -372T190 -286T164 -115V246Q164 343 139 397T41 502V621Q114 673 139 726T164 874V1239Q164 1350 190 1410T283 1496T477 1522H580Q595
1522 608 1509T621 1481V1413Q621 1398 608 1385T580 1372H487Q427 1372 397 1362T357 1324T346 1239V874Q346 764 313 689T201 559Q280 503 313 430T346 246V-115Q346 -160 351 -184T371 -222T414 -242T487 -248H582Q599 -248 611 -260T623 -289V-356Z" />
<glyph unicode="|" glyph-name="bar" horiz-adv-x="510" d="M346 -358Q346 -374 336 -385T309 -397H203Q188 -397 176 -385T164 -358V1483Q164 1498 176 1510T203 1522H309Q325 1522 335 1511T346 1483V-358Z" />
<glyph unicode="}" glyph-name="braceright" horiz-adv-x="678" d="M637 502Q565 451 540 397T514 246V-115Q514 -226 488 -286T395 -371T201 -397H96Q81 -397 68 -385T55 -356V-289Q55 -272 67 -260T96 -248H190Q280 -248 306 -223T332 -115V246Q332 357 365
430T477 559Q398 614 365 689T332 874V1239Q332 1322 306 1347T190 1372H98Q83 1372 70 1385T57 1413V1481Q57 1496 70 1509T98 1522H201Q328 1522 394 1497T487 1411T514 1239V874Q514 781 539 727T637 621V502Z" />
<glyph unicode="~" glyph-name="asciitilde" horiz-adv-x="1239" d="M1053 956Q1053 825 1001 760T829 694Q749 694 674 752L524 870Q478 908 458 921T416 934Q363 934 347 906T330 813V760Q330 743 317 731T289 719H229Q214 719 201 731T188 760V813Q188 899
214 959T292 1049T416 1079Q499 1079 569 1022L743 883Q768 864 791 853T829 842Q866 842 884 853T906 885T911 956V1014Q911 1029 924 1042T952 1055H1012Q1027 1055 1040 1042T1053 1014V956Z" />
</font>
</defs>
</svg>
