<?xml version="1.0" encoding="utf-8"?>
<!-- Generator: Adobe Illustrator 16.0.3, SVG Export Plug-In . SVG Version: 6.00 Build 0)  -->
<!DOCTYPE svg PUBLIC "-//W3C//DTD SVG 1.1//EN" "http://www.w3.org/Graphics/SVG/1.1/DTD/svg11.dtd">
<svg version="1.1" id="Lager_1" xmlns="http://www.w3.org/2000/svg" xmlns:xlink="http://www.w3.org/1999/xlink" x="0px" y="0px"
	 width="180px" height="65.001px" viewBox="0 0 180 65.001" enable-background="new 0 0 180 65.001" xml:space="preserve">
<g>
	<path fill="#0099CC" d="M122.973,48.401V26.054h-5.107v7.022l-3.799-5.683c-0.479-0.733-1.596-1.34-2.49-1.34h-6.161
		c-0.894,0-1.596,0.734-1.596,1.596v20.752h5.107V30.523h1.501l7.438,11.173v6.705H122.973z M84.033,22.348h15.961
		c0.894,0,1.596-0.703,1.596-1.597V10.535c0-0.861-0.415-2.202-0.894-2.938l-4.183-6.257C96.036,0.607,94.918,0,94.024,0h-9.991
		c-0.895,0-1.597,0.703-1.597,1.597v19.154C82.436,21.645,83.138,22.348,84.033,22.348z M87.544,4.47h5.331l2.968,4.469h-8.299V4.47
		z M87.544,13.408h8.938v4.471h-8.938V13.408z M105.415,22.348h17.559v-4.469h-14.047v-4.471h11.493v-4.47h-11.493V4.47h14.047V0
		h-17.559c-0.894,0-1.596,0.703-1.596,1.597v19.154C103.819,21.645,104.521,22.348,105.415,22.348z M144.06,48.401h23.932
		l-2.976-4.471h-17.444v-4.469h14.467l-2.977-4.469h-11.49v-4.47h8.513l-2.977-4.47h-9.048c-0.895,0-1.597,0.702-1.597,1.596v19.156
		C142.463,47.698,143.166,48.401,144.06,48.401z M126.769,22.348h13.495v-4.469h-9.983V0h-5.108v20.751
		C125.172,21.645,125.875,22.348,126.769,22.348z M130.249,47.062c0.479,0.732,1.596,1.34,2.489,1.34h7.526v-4.471h-6.377
		l-3.606-5.426v-7.981h9.983v-4.47h-13.495c-0.895,0-1.597,0.702-1.597,1.596v10.217c0,0.895,0.384,2.203,0.894,2.938
		L130.249,47.062z M80.237,30.523v-4.47H70.02v4.47h2.555v13.407H70.02v4.471h10.217v-4.471h-2.555V30.523H80.237z M62.677,22.348
		h17.56v-4.469H66.189v-4.471h11.493v-4.47H66.189V4.47h14.048V0h-17.56c-0.894,0-1.596,0.703-1.596,1.597v19.154
		C61.082,21.645,61.784,22.348,62.677,22.348z M41.323,48.401h11.017v-4.471h-7.505V26.054h-5.108v20.752
		C39.726,47.698,40.429,48.401,41.323,48.401z M54.54,26.054v20.752c0,0.893,0.702,1.596,1.596,1.596H67.82v-4.471h-8.172V26.054
		H54.54z M44.834,17.239h4.884l3.416,5.108h5.747l-4.693-7.023l3.799-5.683c0.479-0.734,0.895-2.044,0.895-2.938V1.597
		C58.881,0.703,58.178,0,57.285,0H41.322c-0.894,0-1.596,0.703-1.596,1.597v20.751h5.108V17.239z M44.834,4.47h8.938v2.873
		l-3.607,5.428h-5.331V4.47z M19.434,45.847h12.984v2.555h5.107V27.649c0-0.861-0.733-1.596-1.596-1.596h-7.438
		c-0.895,0-2.012,0.606-2.49,1.34L12.004,48.401h5.729L19.434,45.847z M29.641,30.523h2.777v10.854H22.411L29.641,30.523z
		 M87.542,45.847h8.94v2.555h5.106V27.649c0-0.861-0.734-1.596-1.596-1.596h-7.438c-0.894,0-2.011,0.606-2.49,1.34l-6.735,10.09
		c-0.511,0.734-0.894,2.074-0.894,2.936v7.982h5.106V45.847z M87.542,39.782l6.162-9.259h2.778v10.854h-8.94V39.782z"/>
	<path fill="#E0C40C" d="M90,53.425c-31,0-61.117,3.771-89.925,10.871v0.705C21.789,60.909,54.018,58.315,90,58.315
		c35.981,0,68.211,2.594,89.925,6.686v-0.705C151.118,57.196,121,53.425,90,53.425z"/>
</g>
</svg>
